<svg width="531" height="532" viewBox="0 0 531 532" fill="none" xmlns="http://www.w3.org/2000/svg">
<path d="M291.84 157.373C291.84 171.832 280.121 183.556 265.663 183.556C251.204 183.556 239.485 171.832 239.485 157.373C239.485 142.92 251.204 131.196 265.663 131.196C280.121 131.196 291.84 142.92 291.84 157.373Z" fill="black"/>
<path d="M265.667 27.1466C397.298 27.1466 504.387 134.24 504.387 265.867C504.387 397.493 397.294 504.6 265.667 504.6C134.04 504.6 26.9336 397.512 26.9336 265.88C26.9336 134.24 134.032 27.1466 265.667 27.1466M265.667 0.625244C119.174 0.625244 0.413574 119.38 0.413574 265.879C0.413574 412.372 119.168 531.132 265.667 531.132C412.16 531.132 530.92 412.377 530.92 265.879C530.92 119.385 412.155 0.625244 265.667 0.625244V0.625244Z" fill="black"/>
<path d="M247.093 219.253H284.224V400.573H247.093V219.253Z" fill="black"/>
</svg>
