<svg width="462" height="476" viewBox="0 0 462 476" fill="none" xmlns="http://www.w3.org/2000/svg">
<path d="M209.36 63.15C204.485 53.5211 197.825 45.123 190.231 41.423C165.567 29.38 129.047 15.325 96.747 32.0597C87.165 37.0245 64.493 58.2117 44.477 76.8917C39.9809 81.0909 35.684 85.1065 31.844 88.6377C29.5901 90.7158 27.2815 92.7275 24.9963 94.708C13.1523 105.001 0.910306 115.642 0.0583064 133.001V133.013C-0.508104 145.025 13.7063 165.986 20.8003 174.201C20.8276 174.236 20.8316 174.279 20.8589 174.31C21.7573 175.404 22.6206 176.63 23.5386 177.919C29.0855 185.74 36.5306 196.229 59.5546 196.229C61.3593 196.229 63.2499 196.162 65.2421 196.033C83.8591 194.787 102.234 184.033 118.43 174.564C132.782 166.174 146.125 158.31 156.614 158.912C174.583 160.049 206.794 150.795 218.235 132.904C231.84 111.642 226.262 93.5172 209.497 63.3182C209.466 63.2518 209.399 63.2166 209.36 63.1502L209.36 63.15ZM30.5 101.056C32.8516 99.0091 35.2266 96.9544 37.5312 94.8216C41.3906 91.2669 45.6914 87.2513 50.2072 83.0326C68.8552 65.6306 92.0552 43.9626 100.617 39.5246C129.492 24.5286 163.496 37.7316 186.555 48.9738C199.485 55.2863 210.66 82.0908 208.77 96.2008C206.516 113.142 200.13 122.482 188.055 126.474C181.329 128.704 175.391 129.099 169.09 129.525C162.047 129.993 154.762 130.478 146.473 133.638L145.149 134.142C122.465 142.782 98.239 152.486 90.594 158.958C73.489 173.474 36.149 178.438 28.239 169.974C21.0437 162.263 8.04801 141.997 8.46601 133.419C9.13007 119.638 19.04 111.021 30.501 101.056L30.5 101.056ZM211.18 128.376C201.676 143.228 172.274 151.552 157.172 150.536C144.453 149.563 129.695 158.247 114.211 167.313C98.047 176.762 81.344 186.54 64.688 187.657C51.461 188.563 43.911 185.989 38.782 182.219C40.5554 182.387 42.3523 182.536 44.2547 182.536C61.8527 182.536 84.0787 175.493 96.0207 165.364C103.599 158.942 135.966 146.63 148.15 141.989L149.474 141.485C156.583 138.774 162.939 138.344 169.654 137.899C176.193 137.462 182.966 137.012 190.709 134.454C209.131 128.352 214.486 113.009 216.572 100.665C218.627 110.606 217.127 119.087 211.181 128.376L211.18 128.376ZM461.51 131.317C461.498 131.056 461.28 130.919 461.229 130.677C461.373 109.318 443.612 76.6338 407.651 48.7278C407.565 48.6379 407.522 48.5168 407.424 48.4348C407.127 48.1731 406.784 48.0325 406.448 47.8684C401.905 44.3918 397.252 40.9426 392.147 37.6614C344.022 6.7394 316.338 -4.0966 299.749 1.4034C289.39 4.8175 284.632 14.1574 281.343 22.8414C262.937 71.3494 256.155 201.771 255.937 206.741C255.128 211.116 256.835 215.515 260.39 218.202C262.499 219.8 265.015 220.597 267.487 220.597C269.171 220.597 270.835 220.226 272.331 219.48C273.566 218.976 396.651 169.222 445.501 154.468C454.282 151.811 459.872 144.995 461.228 135.284C461.326 134.581 461.177 133.717 461.228 132.979C461.427 132.467 461.533 131.905 461.509 131.315L461.51 131.317ZM268.89 211.829C267.195 212.661 265.925 211.872 265.445 211.501C264.953 211.13 263.859 210.079 264.265 207.716C264.324 206.497 270.097 95.5161 284.722 40.1461C293.632 44.4078 302.05 46.025 310.859 47.5367C320.199 49.1461 329.847 50.8062 341.289 56.0914C355.137 62.4781 368.437 73.6694 381.289 84.4864C389.34 91.2794 396.953 97.6894 404.598 102.884C416.356 110.869 419.121 125.591 421.575 138.583C422.563 143.822 423.641 148.283 425.04 152.282C399.837 160.86 366.102 173.61 336.395 185.13C336.399 184.888 336.492 184.658 336.492 184.412C336.492 167.185 322.469 153.174 305.242 153.174C288.015 153.174 274.004 167.186 274.004 184.412C274.004 192.732 277.251 200.447 282.891 206.205C274.418 209.587 269.196 211.705 268.891 211.83L268.89 211.829ZM291.765 202.661C285.945 198.357 282.398 191.743 282.398 184.407C282.398 171.817 292.648 161.571 305.234 161.571C317.836 161.571 328.082 171.821 328.082 184.407C328.082 185.825 327.777 187.196 327.519 188.575C313.953 193.868 301.609 198.747 291.765 202.661H291.765ZM443.065 146.423C439.913 147.377 436.452 148.474 432.745 149.693C431.554 146.24 430.702 141.732 429.819 137.029C429.284 134.181 428.69 131.177 428.007 128.134L433.233 127.162C435.518 126.736 437.019 124.537 436.601 122.263C436.175 119.99 434.054 118.502 431.702 118.896L425.839 119.986C422.944 110.865 418.272 102.029 409.312 95.9269C402.027 90.9816 394.578 84.7039 386.683 78.0679C375.109 68.3218 363.14 58.4699 350.421 51.5089L352.483 45.7784C353.272 43.5909 352.143 41.1846 349.956 40.4073C347.757 39.587 345.362 40.7472 344.585 42.9346L342.878 47.6807C335.913 44.6495 329.53 42.7784 323.601 41.4659L324.636 34.7511C324.988 32.4659 323.41 30.3214 321.113 29.962C318.871 29.5792 316.683 31.1886 316.324 33.4854L315.347 39.8096C314.328 39.6299 313.265 39.4268 312.273 39.2589C303.308 37.7237 295.406 36.2003 287.085 31.9542C287.768 29.794 288.464 27.712 289.186 25.8136C292.327 17.5245 295.772 11.5516 302.366 9.37556C304.304 8.74275 306.499 8.42244 308.984 8.42244C324.023 8.42244 349.386 20.1684 387.593 44.7234C391.413 47.1765 394.866 49.7976 398.374 52.3875L394.725 56.5555C393.194 58.3055 393.37 60.9539 395.12 62.4852C395.917 63.1845 396.901 63.5243 397.885 63.5243C399.057 63.5243 400.213 63.0439 401.046 62.0907L405.112 57.4462C434.647 81.2392 451.292 108.704 452.823 127.45L447.069 127.681C444.749 127.778 442.944 129.735 443.034 132.044C443.132 134.31 444.991 136.079 447.233 136.079H447.397L452.46 135.876C451.21 141.286 448.128 144.896 443.065 146.423L443.065 146.423ZM370.78 159.079C387.733 159.079 401.526 145.286 401.526 128.345C401.526 111.392 387.733 97.5994 370.78 97.5994C353.839 97.5994 340.046 111.392 340.046 128.345C340.046 145.286 353.839 159.079 370.78 159.079ZM370.78 105.997C383.108 105.997 393.124 116.017 393.124 128.341C393.124 140.657 383.104 150.677 370.78 150.677C358.464 150.677 348.444 140.657 348.444 128.341C348.444 116.017 358.464 105.997 370.78 105.997V105.997ZM300.725 124.7C313.358 124.7 323.627 114.43 323.627 101.798C323.627 89.1654 313.357 78.8964 300.725 78.8964C288.092 78.8964 277.823 89.1664 277.823 101.798C277.823 114.431 288.093 124.7 300.725 124.7V124.7ZM300.725 87.2944C308.721 87.2944 315.229 93.8022 315.229 101.798C315.229 109.794 308.721 116.302 300.725 116.302C292.729 116.302 286.221 109.795 286.221 101.798C286.221 93.8023 292.729 87.2944 300.725 87.2944ZM293.471 68.1534C293.186 65.8448 294.815 63.7472 297.112 63.462L312.303 61.5597C314.721 61.2433 316.709 62.9152 316.994 65.2003C317.279 67.5089 315.65 69.6065 313.353 69.8917L298.165 71.7979C297.99 71.8213 297.806 71.8291 297.642 71.8291C295.548 71.8291 293.736 70.2783 293.47 68.1533L293.471 68.1534ZM311.049 143.841C311.705 146.06 310.436 148.404 308.205 149.048C307.811 149.169 307.416 149.224 307.026 149.224C305.209 149.224 303.537 148.044 303.002 146.205L299.424 134.033C298.768 131.814 300.037 129.47 302.268 128.826C304.498 128.158 306.83 129.439 307.475 131.669L311.049 143.841ZM402.955 148.416L406.752 136.713C407.463 134.502 409.846 133.279 412.033 134.01C414.244 134.72 415.455 137.095 414.736 139.291L410.939 150.994C410.369 152.775 408.721 153.904 406.947 153.904C406.521 153.904 406.084 153.837 405.658 153.697C403.447 152.986 402.236 150.615 402.955 148.416L402.955 148.416ZM352.35 159.736C354.276 161.025 354.78 163.642 353.475 165.564L347.307 174.708C346.499 175.911 345.174 176.556 343.831 176.556C343.022 176.556 342.202 176.325 341.479 175.833C339.553 174.544 339.049 171.927 340.354 170.005L346.522 160.861C347.823 158.927 350.424 158.423 352.35 159.736L352.35 159.736ZM335.725 105.279C333.799 103.989 333.295 101.372 334.6 99.4505L340.768 90.306C342.057 88.3685 344.663 87.8685 346.596 89.181C348.522 90.4701 349.026 93.0872 347.721 95.0091L341.553 104.154C340.745 105.357 339.42 106.001 338.077 106.001C337.268 105.997 336.448 105.771 335.725 105.279L335.725 105.279ZM319.057 323.029L302.127 325.15C301.951 325.173 301.768 325.181 301.604 325.181C299.514 325.181 297.697 323.626 297.436 321.505C297.151 319.197 298.779 317.099 301.076 316.814L318.006 314.693C320.436 314.407 322.412 316.048 322.698 318.333C322.983 320.642 321.354 322.743 319.057 323.029L319.057 323.029ZM293.549 374.959C294.205 377.177 292.936 379.521 290.705 380.166C290.311 380.287 289.916 380.341 289.526 380.341C287.709 380.341 286.037 379.162 285.502 377.322L281.51 363.748C280.854 361.529 282.123 359.185 284.354 358.541C286.573 357.873 288.916 359.142 289.561 361.385L293.549 374.959ZM388.572 411.818C389.228 414.036 387.959 416.38 385.728 417.025C385.334 417.146 384.939 417.2 384.549 417.2C382.732 417.2 381.06 416.021 380.525 414.181L376.533 400.607C375.877 398.388 377.146 396.044 379.377 395.4C381.607 394.72 383.939 396.013 384.584 398.244L388.572 411.818ZM398.287 316.205L394.052 329.264C393.482 331.045 391.834 332.174 390.06 332.174C389.635 332.174 389.197 332.107 388.771 331.967C386.56 331.256 385.349 328.881 386.068 326.686L390.302 313.624C391.002 311.413 393.388 310.19 395.584 310.92C397.795 311.631 399.01 314.006 398.287 316.206L398.287 316.205ZM329.314 404.424C331.24 405.713 331.744 408.33 330.439 410.252L323.56 420.447C322.751 421.65 321.427 422.294 320.083 422.294C319.275 422.294 318.455 422.064 317.732 421.572C315.806 420.283 315.302 417.666 316.607 415.744L323.486 405.549C324.775 403.615 327.376 403.103 329.314 404.424L329.314 404.424ZM415.502 361.518L408.635 371.713C407.826 372.916 406.502 373.56 405.158 373.56C404.349 373.56 403.529 373.33 402.807 372.838C400.892 371.549 400.377 368.931 401.682 367.01L408.549 356.815C409.838 354.877 412.455 354.377 414.377 355.69C416.291 356.979 416.803 359.592 415.502 361.518L415.502 361.518ZM350.764 298.123C348.85 296.833 348.334 294.216 349.639 292.294L356.506 282.099C357.807 280.162 360.401 279.662 362.334 280.974C364.248 282.264 364.764 284.881 363.459 286.803L356.592 296.998C355.783 298.201 354.459 298.845 353.115 298.845C352.307 298.845 351.486 298.615 350.764 298.123L350.764 298.123ZM347.338 325.369C329.815 325.369 315.565 339.619 315.565 357.142C315.565 374.665 329.815 388.927 347.338 388.927C364.861 388.927 379.111 374.665 379.111 357.142C379.111 339.619 364.861 325.369 347.338 325.369ZM347.338 380.525C334.455 380.525 323.963 370.037 323.963 357.142C323.963 344.259 334.451 333.767 347.338 333.767C360.221 333.767 370.713 344.255 370.713 357.142C370.713 370.037 360.225 380.525 347.338 380.525ZM434.955 307.927C436.529 298.317 436.713 289.075 430.135 282.482C424.1 276.462 415.709 275.732 407.998 275.986C397.24 267.611 385.178 261.607 372.076 258.138C367.908 253.884 363.185 250.255 357.205 249.309C345.478 247.427 337.287 251.04 331.334 255.86C284.111 262.825 248.49 301.821 245.643 349.407C239.948 353.892 235.338 359.954 235.338 369.512C235.338 382.461 243.342 388.035 252.037 391.203C266.826 430.183 304.326 456.301 346.178 456.301C364.811 456.301 382.928 451.145 398.713 441.489C402.584 441.212 406.186 440.595 408.971 438.978C414.686 435.657 417.674 430.513 419.303 424.836C437.139 406.035 446.979 381.47 446.979 355.513C446.979 338.888 442.78 322.497 434.956 307.927L434.955 307.927ZM438.416 358.966C437.842 355.54 436.549 351.938 434.271 348.173C429.775 340.747 430.576 331.474 432.275 322.079C436.385 332.692 438.58 344.044 438.58 355.513C438.58 356.673 438.455 357.813 438.416 358.966V358.966ZM394.096 276.591C391.854 276.52 389.912 276.235 388.553 275.505C386.846 274.598 385.1 272.962 383.311 271.009C387.014 272.634 390.623 274.473 394.096 276.591H394.096ZM321.686 266.486C321.471 266.786 321.213 267.13 321.01 267.411C319.795 269.107 318.428 271.032 317.729 271.536C311.135 276.361 309.538 281.04 308.256 284.802C307.303 287.568 306.561 289.767 303.85 292.263C302.112 293.849 298.807 293.904 294.967 293.97C289.413 294.056 282.498 294.177 276.24 299.08C267.393 306.013 268.596 316.932 269.381 324.15C269.6 326.13 269.807 328.001 269.709 329.029C269.076 335.415 262.928 338.896 255.807 342.92C255.397 343.154 254.963 343.404 254.545 343.642C259.288 306.568 285.9 276.251 321.686 266.486L321.686 266.486ZM262.581 394.256C266.819 395.291 270.819 396.291 273.237 397.799C276.397 399.767 279.448 407.4 282.393 414.783C283.913 418.591 285.522 422.537 287.311 426.349C276.916 417.724 268.436 406.869 262.581 394.255L262.581 394.256ZM329.866 446.315C334.589 445.26 339.386 443.936 343.971 442.654C349.963 440.982 355.619 439.404 359.744 438.869C363.67 438.334 370.068 439.197 376.861 440.104C378.474 440.315 380.08 440.498 381.689 440.697C370.498 445.361 358.474 447.9 346.181 447.9C340.63 447.9 335.201 447.275 329.865 446.315L329.866 446.315ZM404.753 431.713C399.71 434.654 387.648 433.056 377.968 431.767C370.616 430.795 363.652 429.884 358.652 430.533C353.937 431.158 348 432.806 341.722 434.568C330.14 437.795 315.722 441.83 308.472 438.974C299.722 435.552 294.66 422.865 290.195 411.662C286.433 402.233 283.195 394.096 277.683 390.662C274.042 388.397 269.261 387.229 264.206 385.99C251.476 382.873 243.741 380.205 243.741 369.506C243.741 359.389 251.257 355.147 259.952 350.225C267.948 345.698 277.014 340.577 278.077 329.85C278.264 327.948 278.022 325.761 277.749 323.221C276.905 315.577 276.643 309.44 281.436 305.678C285.46 302.518 290.155 302.44 295.12 302.366C300.195 302.28 305.444 302.19 309.534 298.452C313.831 294.503 315.155 290.62 316.218 287.514C317.343 284.201 318.241 281.576 322.702 278.315C324.484 277.002 325.972 274.924 327.855 272.276C332.46 265.811 338.597 257.206 351.097 257.206C352.597 257.206 354.202 257.338 355.897 257.6C362.144 258.596 367.303 264.917 372.292 271.022C376.261 275.878 380.003 280.471 384.597 282.913C389.531 285.581 395.984 285.132 402.777 284.675C410.938 284.128 419.336 283.569 424.191 288.425C429.398 293.632 427.473 303.159 425.254 314.195C422.75 326.597 419.906 340.652 427.082 352.531C435.406 366.269 426.395 376.726 416.449 386.261C412.633 389.925 412.699 396.402 412.773 404.581C412.867 415.058 412.976 426.936 404.754 431.714L404.753 431.713ZM421.167 404.502C421.124 400.377 421.058 393.467 422.261 392.318C426.663 388.099 433.679 381.341 436.968 372.658C434.487 385.912 429.073 398.361 421.175 409.334C421.19 407.669 421.183 406.044 421.167 404.502V404.502ZM30.437 131.732C28.644 133.208 28.3901 135.857 29.8667 137.638C30.6987 138.642 31.9019 139.169 33.105 139.169C34.0464 139.169 34.9956 138.853 35.773 138.208L44.105 131.329L75.574 151.29C76.2732 151.739 77.0506 151.946 77.8279 151.946C79.2185 151.946 80.574 151.259 81.3709 150.001C82.617 148.044 82.0389 145.439 80.0818 144.204L50.9218 125.708L72.0898 108.239L95.8948 123.344L90.2425 128.555C88.5355 130.118 88.4261 132.778 90.0003 134.485C90.8206 135.383 91.9573 135.84 93.0862 135.84C94.1018 135.84 95.1214 135.469 95.93 134.723L103.227 127.996L118.778 137.864C119.477 138.313 120.255 138.52 121.032 138.52C122.422 138.52 123.778 137.832 124.575 136.575C125.821 134.618 125.243 132.012 123.286 130.778L109.622 122.11L130.165 103.176L146.747 113.696C147.446 114.145 148.223 114.352 149.001 114.352C150.391 114.352 151.747 113.665 152.544 112.407C153.79 110.45 153.212 107.844 151.255 106.61L136.56 97.2895L156.064 79.3125L178.173 93.3325C178.872 93.7817 179.649 93.9887 180.426 93.9887C181.817 93.9887 183.173 93.3012 183.969 92.0434C185.216 90.0864 184.637 87.481 182.68 86.2466L162.457 73.4226L170.735 65.7937C172.442 64.2312 172.551 61.571 170.977 59.864C169.414 58.157 166.754 58.0476 165.047 59.6218L155.121 68.7702L135.219 56.1492L141.29 51.1375C143.083 49.6609 143.336 47.0125 141.86 45.2313C140.372 43.4266 137.715 43.1844 135.954 44.661L127.766 51.4188L118.817 45.743C116.872 44.5086 114.266 45.075 113.02 47.0321C111.774 48.9891 112.352 51.5946 114.309 52.829L120.95 57.0399L100.161 74.1959L87.4028 66.1021C85.4536 64.8482 82.8637 65.4263 81.6059 67.3833C80.3598 69.3403 80.9379 71.9458 82.895 73.1802L93.344 79.8091L71.449 97.8791L59.429 90.2541C57.4837 89.008 54.8782 89.5861 53.6321 91.5432C52.3899 93.5041 52.968 96.1057 54.9251 97.344L64.636 103.504L43.468 120.977L29.3 111.989C27.3625 110.743 24.7492 111.321 23.5031 113.278C22.257 115.235 22.8351 117.84 24.7922 119.075L36.6512 126.598L30.437 131.732ZM128.402 61.7546L148.726 74.6456L129.222 92.6226L107.613 78.9156L128.402 61.7546ZM100.8 84.5396L122.831 98.5166L102.288 117.451L78.901 102.615L100.8 84.5396ZM172.003 300.49L164.835 229.15L139.983 231.634L133.151 199.173L103.753 205.364L108.659 228.665L102.976 215.712L75.4796 227.786L81.0343 240.454L66.5813 243.048L60.2454 225.61L32.1594 236.243L54.2414 297.141L53.5422 297.524L27.9602 251.024L1.61219 265.43L14.9642 289.871L4.41319 295.637L37.6942 356.559L33.0809 360.352L103.167 475.532L126.214 470.063L127.058 468.149C127.112 468.016 132.897 455.383 155.081 446.36C177.229 437.336 190.214 442.336 190.311 442.379L192.268 443.211L212.588 431.004L182.346 299.604L172.003 300.49ZM157.312 238.334L163.636 301.209L157.601 301.732L149.957 284.314L144.265 239.65L157.312 238.334ZM96.683 349.144L83.495 325.007L95.112 318.663L109.78 345.518C105.128 347.19 100.745 348.389 96.682 349.143L96.683 349.144ZM72.148 349.03L50.226 308.893L61.843 302.55L72.238 321.585L72.1013 321.659L87.6993 350.214C81.5977 350.538 76.3983 349.975 72.1483 349.03L72.148 349.03ZM117.601 342.312L104.14 317.667L104.257 317.635L94.601 283.772L107.32 280.139L124.125 338.991C122.105 340.14 119.914 341.241 117.602 342.312L117.601 342.312ZM131.488 334.226L117.418 284.906L137.066 329.707C135.402 331.226 133.527 332.734 131.488 334.226L131.488 334.226ZM143.343 323.097L116.917 262.847L129.034 257.542L151.475 308.702C150.385 311.964 148.073 317.233 143.342 323.097L143.343 323.097ZM126.655 209.127L135.6 251.607L133.35 246.478L122.045 251.439L113.706 211.861L126.655 209.127ZM86.546 232.096L98.663 226.779L111.503 256.06L105.851 258.541L111.027 270.342L101.663 273.014L95.3624 237.881L89.5421 238.924L86.546 232.096ZM88.5812 247.635L93.5421 275.33L84.2062 277.994L93.3585 310.045L86.9444 313.545L75.5494 249.959L88.5812 247.635ZM42.8742 241.162L55.2572 236.482L73.6912 287.197L78.9021 316.267L65.1911 291.162L61.6989 293.068L42.8742 241.162ZM13.0032 268.767L24.6282 262.411L46.1712 301.536L42.8509 303.353L30.7649 281.224L22.3274 285.833L13.0032 268.767ZM15.804 298.978L27.421 292.622L54.698 342.563L44.288 351.122L15.804 298.978ZM44.034 362.205L54.804 353.357L116.792 463.677L107.167 465.951L44.034 362.205ZM151.894 438.572C136.421 444.877 127.878 452.881 123.456 458.396L65.925 356.006C66.093 356.057 66.2883 356.104 66.4602 356.154L66.7649 356.713L67.3391 356.397C73.6125 358.158 81.8981 359.256 92.0501 358.201L92.1282 358.342L92.4446 358.17C99.6555 357.385 107.679 355.588 116.64 351.943C139.386 342.689 150.413 329.291 155.781 319.447L186.086 432.907C179.078 432.044 167.379 432.271 151.895 438.564L151.894 438.572ZM194.542 432.029L161.894 309.779L175.792 308.595L203.015 426.935L194.542 432.029Z" fill="black" fill-opacity="0.08"/>
</svg>
