<?xml version="1.0" encoding="UTF-8"?>
<svg width="700pt" height="700pt" version="1.1" viewBox="0 0 700 700" xmlns="http://www.w3.org/2000/svg" xmlns:xlink="http://www.w3.org/1999/xlink">
 <defs>
  <symbol id="l" overflow="visible">
   <path d="m37.516-2.25c-1.9297 1.0117-3.9453 1.7734-6.0469 2.2812-2.0938 0.50781-4.2812 0.76562-6.5625 0.76562-6.793 0-12.18-1.8984-16.156-5.7031-3.9688-3.8008-5.9531-8.957-5.9531-15.469 0-6.5195 1.9844-11.68 5.9531-15.484 3.9766-3.8008 9.3633-5.7031 16.156-5.7031 2.2812 0 4.4688 0.25781 6.5625 0.76562 2.1016 0.51172 4.1172 1.2656 6.0469 2.2656v8.4531c-1.9492-1.332-3.8711-2.3047-5.7656-2.9219-1.8984-0.625-3.8906-0.9375-5.9844-0.9375-3.7617 0-6.7188 1.2031-8.875 3.6094-2.1484 2.4062-3.2188 5.7266-3.2188 9.9531 0 4.2109 1.0703 7.5156 3.2188 9.9219 2.1562 2.4062 5.1133 3.6094 8.875 3.6094 2.0938 0 4.0859-0.30469 5.9844-0.92188 1.8945-0.625 3.8164-1.5977 5.7656-2.9219z"/>
  </symbol>
  <symbol id="h" overflow="visible">
   <path d="m27.453-22.281c-0.85547-0.40625-1.7109-0.70312-2.5625-0.89062-0.84375-0.19531-1.6953-0.29688-2.5469-0.29688-2.5234 0-4.4609 0.80859-5.8125 2.4219-1.3555 1.6172-2.0312 3.9297-2.0312 6.9375v14.109h-9.7969v-30.625h9.7969v5.0312c1.25-2.0078 2.6914-3.4727 4.3281-4.3906 1.6328-0.91406 3.5859-1.375 5.8594-1.375 0.33203 0 0.6875 0.015625 1.0625 0.046875 0.38281 0.023438 0.94141 0.078125 1.6719 0.17188z"/>
  </symbol>
  <symbol id="a" overflow="visible">
   <path d="m35.281-15.391v2.7812h-22.891c0.23828 2.3047 1.0664 4.0273 2.4844 5.1719 1.4258 1.1484 3.4141 1.7188 5.9688 1.7188 2.0508 0 4.1562-0.30078 6.3125-0.90625 2.1641-0.61328 4.3906-1.5391 6.6719-2.7812v7.5469c-2.3125 0.875-4.6328 1.5391-6.9531 1.9844-2.3125 0.44531-4.625 0.67188-6.9375 0.67188-5.543 0-9.8516-1.4062-12.922-4.2188-3.0742-2.8203-4.6094-6.7734-4.6094-11.859 0-5 1.5039-8.9258 4.5156-11.781 3.0195-2.8633 7.1758-4.2969 12.469-4.2969 4.8125 0 8.6602 1.4492 11.547 4.3438 2.8945 2.8984 4.3438 6.7734 4.3438 11.625zm-10.062-3.2656c0-1.8516-0.54688-3.3477-1.6406-4.4844-1.0859-1.1445-2.5-1.7188-4.25-1.7188-1.8984 0-3.4375 0.53906-4.625 1.6094-1.1797 1.0625-1.9141 2.5938-2.2031 4.5938z"/>
  </symbol>
  <symbol id="g" overflow="visible">
   <path d="m18.438-13.781c-2.043 0-3.5781 0.35156-4.6094 1.0469-1.0312 0.6875-1.5469 1.7031-1.5469 3.0469 0 1.2422 0.41016 2.2148 1.2344 2.9219 0.83203 0.69922 1.9883 1.0469 3.4688 1.0469 1.8438 0 3.3906-0.66016 4.6406-1.9844 1.2578-1.3203 1.8906-2.9727 1.8906-4.9531v-1.125zm14.953-3.6875v17.469h-9.875v-4.5469c-1.3125 1.8672-2.793 3.2266-4.4375 4.0781-1.6367 0.84375-3.6328 1.2656-5.9844 1.2656-3.168 0-5.7422-0.92578-7.7188-2.7812-1.9805-1.8516-2.9688-4.2539-2.9688-7.2031 0-3.5938 1.2344-6.2266 3.7031-7.9062 2.4688-1.6758 6.3477-2.5156 11.641-2.5156h5.7656v-0.76562c0-1.5508-0.60938-2.6875-1.8281-3.4062s-3.125-1.0781-5.7188-1.0781c-2.0938 0-4.0469 0.21484-5.8594 0.64062-1.8047 0.41797-3.4766 1.043-5.0156 1.875v-7.4688c2.0938-0.50781 4.1953-0.89453 6.3125-1.1562 2.1133-0.25781 4.2266-0.39062 6.3438-0.39062 5.5195 0 9.5039 1.0898 11.953 3.2656 2.457 2.1797 3.6875 5.7188 3.6875 10.625z"/>
  </symbol>
  <symbol id="f" overflow="visible">
   <path d="m15.391-39.328v8.7031h10.094v7h-10.094v12.984c0 1.4297 0.28125 2.3906 0.84375 2.8906 0.57031 0.5 1.6953 0.75 3.375 0.75h5.0312v7h-8.3906c-3.8672 0-6.6055-0.80469-8.2188-2.4219-1.6172-1.6133-2.4219-4.3516-2.4219-8.2188v-12.984h-4.875v-7h4.875v-8.7031z"/>
  </symbol>
  <symbol id="e" overflow="visible">
   <path d="m25.547-26.141v-16.406h9.8438v42.547h-9.8438v-4.4375c-1.3555 1.8125-2.8438 3.1406-4.4688 3.9844-1.6172 0.83203-3.4922 1.25-5.625 1.25-3.7734 0-6.8711-1.5-9.2969-4.5-2.4297-3-3.6406-6.8594-3.6406-11.578 0-4.7266 1.2109-8.5859 3.6406-11.578 2.4258-3 5.5234-4.5 9.2969-4.5 2.1133 0 3.9844 0.42188 5.6094 1.2656 1.6328 0.84375 3.1289 2.1641 4.4844 3.9531zm-6.4531 19.828c2.0938 0 3.6914-0.76562 4.7969-2.2969 1.1016-1.5312 1.6562-3.7539 1.6562-6.6719 0-2.9141-0.55469-5.1406-1.6562-6.6719-1.1055-1.5312-2.7031-2.2969-4.7969-2.2969-2.0859 0-3.6797 0.76562-4.7812 2.2969-1.1055 1.5312-1.6562 3.7578-1.6562 6.6719 0 2.918 0.55078 5.1406 1.6562 6.6719 1.1016 1.5312 2.6953 2.2969 4.7812 2.2969z"/>
  </symbol>
  <symbol id="d" overflow="visible">
   <path d="m21-6.3125c2.0938 0 3.6914-0.76562 4.7969-2.2969 1.1016-1.5312 1.6562-3.7539 1.6562-6.6719 0-2.9141-0.55469-5.1406-1.6562-6.6719-1.1055-1.5312-2.7031-2.2969-4.7969-2.2969s-3.7031 0.77344-4.8281 2.3125c-1.1172 1.5312-1.6719 3.75-1.6719 6.6562 0 2.8984 0.55469 5.1172 1.6719 6.6562 1.125 1.543 2.7344 2.3125 4.8281 2.3125zm-6.5-19.828c1.3438-1.7891 2.832-3.1094 4.4688-3.9531 1.6445-0.84375 3.5352-1.2656 5.6719-1.2656 3.7695 0 6.8672 1.5 9.2969 4.5 2.4258 2.9922 3.6406 6.8516 3.6406 11.578 0 4.7188-1.2148 8.5781-3.6406 11.578-2.4297 3-5.5273 4.5-9.2969 4.5-2.1367 0-4.0273-0.42188-5.6719-1.2656-1.6367-0.85156-3.125-2.1758-4.4688-3.9688v4.4375h-9.7969v-42.547h9.7969z"/>
  </symbol>
  <symbol id="c" overflow="visible">
   <path d="m0.6875-30.625h9.7812l8.2344 20.781 7-20.781h9.7969l-12.891 33.531c-1.293 3.4062-2.8047 5.7852-4.5312 7.1406-1.7188 1.3633-3.9922 2.0469-6.8125 2.0469h-5.6562v-6.4375h3.0625c1.6562 0 2.8594-0.26562 3.6094-0.79688 0.75781-0.52344 1.3516-1.4648 1.7812-2.8281l0.26562-0.85938z"/>
  </symbol>
  <symbol id="b" overflow="visible">
   <path d="m29.922-7.4375h-16.469l-2.5938 7.4375h-10.578l15.109-40.828h12.562l15.109 40.828h-10.578zm-13.844-7.5781h11.188l-5.5781-16.234z"/>
  </symbol>
  <symbol id="k" overflow="visible">
   <path d="m0.28125-40.828h37.625v7.9531h-13.547v32.875h-10.516v-32.875h-13.562z"/>
  </symbol>
  <symbol id="j" overflow="visible">
   <path d="m23.797-33.938c-3.2109 0-5.6992 1.1875-7.4688 3.5625-1.7734 2.3672-2.6562 5.6992-2.6562 10 0 4.2812 0.88281 7.6094 2.6562 9.9844 1.7695 2.3672 4.2578 3.5469 7.4688 3.5469 3.2188 0 5.7109-1.1797 7.4844-3.5469 1.7695-2.375 2.6562-5.7031 2.6562-9.9844 0-4.3008-0.88672-7.6328-2.6562-10-1.7734-2.375-4.2656-3.5625-7.4844-3.5625zm0-7.625c6.5625 0 11.703 1.8828 15.422 5.6406 3.7188 3.75 5.5781 8.9336 5.5781 15.547 0 6.6055-1.8594 11.789-5.5781 15.547-3.7188 3.75-8.8594 5.625-15.422 5.625-6.5547 0-11.695-1.875-15.422-5.625-3.7188-3.7578-5.5781-8.9414-5.5781-15.547 0-6.6133 1.8594-11.797 5.5781-15.547 3.7266-3.7578 8.8672-5.6406 15.422-5.6406z"/>
  </symbol>
  <symbol id="i" overflow="visible">
   <path d="m5.1406-40.828h13.406l9.2969 21.844 9.3438-21.844h13.375v40.828h-9.9531v-29.859l-9.4062 22.016h-6.6719l-9.4062-22.016v29.859h-9.9844z"/>
  </symbol>
 </defs>
 <g>
  <path d="m336.36 113.15c-4.875-9.6289-11.535-18.027-19.129-21.727-24.664-12.043-61.184-26.098-93.484-9.3633-9.582 4.9648-32.254 26.152-52.27 44.832-4.4961 4.1992-8.793 8.2148-12.633 11.746-2.2539 2.0781-4.5625 4.0898-6.8477 6.0703-11.844 10.293-24.086 20.934-24.938 38.293v0.011719c-0.56641 12.012 13.648 32.973 20.742 41.188 0.027344 0.035156 0.03125 0.078125 0.058594 0.10938 0.89844 1.0938 1.7617 2.3203 2.6797 3.6094 5.5469 7.8203 12.992 18.309 36.016 18.309 1.8047 0 3.6953-0.066407 5.6875-0.19531 18.617-1.2461 36.992-12 53.188-21.469 14.352-8.3906 27.695-16.254 38.184-15.652 17.969 1.1367 50.18-8.1172 61.621-26.008 13.605-21.262 8.0273-39.387-8.7383-69.586-0.03125-0.066406-0.097656-0.10156-0.13672-0.16797zm-178.86 37.906c2.3516-2.0469 4.7266-4.1016 7.0312-6.2344 3.8594-3.5547 8.1602-7.5703 12.676-11.789 18.648-17.402 41.848-39.07 50.41-43.508 28.875-14.996 62.879-1.793 85.938 9.4492 12.93 6.3125 24.105 33.117 22.215 47.227-2.2539 16.941-8.6406 26.281-20.715 30.273-6.7266 2.2305-12.664 2.625-18.965 3.0508-7.043 0.46875-14.328 0.95312-22.617 4.1133l-1.3242 0.50391c-22.684 8.6406-46.91 18.344-54.555 24.816-17.105 14.516-54.445 19.48-62.355 11.016-7.1953-7.7109-20.191-27.977-19.773-36.555 0.66406-13.781 10.574-22.398 22.035-32.363zm180.68 27.32c-9.5039 14.852-38.906 23.176-54.008 22.16-12.719-0.97266-27.477 7.7109-42.961 16.777-16.164 9.4492-32.867 19.227-49.523 20.344-13.227 0.90625-20.777-1.668-25.906-5.4375 1.7734 0.16797 3.5703 0.31641 5.4727 0.31641 17.598 0 39.824-7.043 51.766-17.172 7.5781-6.4219 39.945-18.734 52.129-23.375l1.3242-0.50391c7.1094-2.7109 13.465-3.1406 20.18-3.5859 6.5391-0.4375 13.312-0.88672 21.055-3.4453 18.422-6.1016 23.777-21.445 25.863-33.789 2.0547 9.9414 0.55469 18.422-5.3906 27.711zm250.33 2.9414c-0.011718-0.26172-0.23047-0.39844-0.28125-0.64062 0.14453-21.359-17.617-54.043-53.578-81.949-0.085937-0.089844-0.12891-0.21094-0.22656-0.29297-0.29688-0.26172-0.64062-0.40234-0.97656-0.56641-4.543-3.4766-9.1953-6.9258-14.301-10.207-48.125-30.922-75.809-41.758-92.398-36.258-10.359 3.4141-15.117 12.754-18.406 21.438-18.406 48.508-25.188 178.93-25.406 183.9-0.80859 4.375 0.89844 8.7734 4.4531 11.461 2.1094 1.5977 4.625 2.3945 7.0977 2.3945 1.6836 0 3.3477-0.37109 4.8438-1.1172 1.2344-0.50391 124.32-50.258 173.17-65.012 8.7812-2.6562 14.371-9.4727 15.727-19.184 0.097656-0.70312-0.050781-1.5664 0-2.3047 0.19922-0.51172 0.30469-1.0742 0.28125-1.6641zm-192.62 80.512c-1.6953 0.83203-2.9648 0.042969-3.4453-0.32812-0.49219-0.37109-1.5859-1.4219-1.1797-3.7852 0.058594-1.2188 5.832-112.2 20.457-167.57 8.9102 4.2617 17.328 5.8789 26.137 7.3906 9.3398 1.6094 18.988 3.2695 30.43 8.5547 13.848 6.3867 27.148 17.578 40 28.395 8.0508 6.793 15.664 13.203 23.309 18.398 11.758 7.9844 14.523 22.707 16.977 35.699 0.98828 5.2383 2.0664 9.6992 3.4648 13.699-25.203 8.5781-58.938 21.328-88.645 32.848 0.003906-0.24219 0.097656-0.47266 0.097656-0.71875 0-17.227-14.023-31.238-31.25-31.238s-31.238 14.012-31.238 31.238c0 8.3203 3.2461 16.035 8.8867 21.793-8.4727 3.3828-13.695 5.5-14 5.625zm22.875-9.168c-5.8203-4.3047-9.3672-10.918-9.3672-18.254 0-12.59 10.25-22.836 22.836-22.836 12.602 0 22.848 10.25 22.848 22.836 0 1.418-0.30469 2.7891-0.5625 4.168-13.566 5.293-25.91 10.172-35.754 14.086zm151.3-56.238c-3.1523 0.95312-6.6133 2.0508-10.32 3.2695-1.1914-3.4531-2.043-7.9609-2.9258-12.664-0.53516-2.8477-1.1289-5.8516-1.8125-8.8945l5.2266-0.97266c2.2852-0.42578 3.7852-2.625 3.3672-4.8984-0.42578-2.2734-2.5469-3.7617-4.8984-3.3672l-5.8633 1.0898c-2.8945-9.1211-7.5664-17.957-16.527-24.059-7.2852-4.9453-14.734-11.223-22.629-17.859-11.574-9.7461-23.543-19.598-36.262-26.559l2.0625-5.7305c0.78906-2.1875-0.33984-4.5938-2.5273-5.3711-2.1992-0.82031-4.5938 0.33984-5.3711 2.5273l-1.707 4.7461c-6.9648-3.0312-13.348-4.9023-19.277-6.2148l1.0352-6.7148c0.35156-2.2852-1.2266-4.4297-3.5234-4.7891-2.2422-0.38281-4.4297 1.2266-4.7891 3.5234l-0.97656 6.3242c-1.0195-0.17969-2.082-0.38281-3.0742-0.55078-8.9648-1.5352-16.867-3.0586-25.188-7.3047 0.68359-2.1602 1.3789-4.2422 2.1016-6.1406 3.1406-8.2891 6.5859-14.262 13.18-16.438 1.9375-0.63281 4.1328-0.95312 6.6172-0.95312 15.039 0 40.402 11.746 78.609 36.301 3.8203 2.4531 7.2734 5.0742 10.781 7.6641l-3.6484 4.168c-1.5312 1.75-1.3555 4.3984 0.39453 5.9297 0.79687 0.69922 1.7812 1.0391 2.7656 1.0391 1.1719 0 2.3281-0.48047 3.1602-1.4336l4.0664-4.6445c29.535 23.793 46.18 51.258 47.711 70.004l-5.7539 0.23047c-2.3203 0.097656-4.125 2.0547-4.0352 4.3633 0.097656 2.2656 1.957 4.0352 4.1992 4.0352h0.16406l5.0625-0.20312c-1.25 5.4102-4.332 9.0195-9.3945 10.547zm-72.285 12.656c16.953 0 30.746-13.793 30.746-30.734 0-16.953-13.793-30.746-30.746-30.746-16.941 0-30.734 13.793-30.734 30.746 0 16.941 13.793 30.734 30.734 30.734zm0-53.082c12.328 0 22.344 10.02 22.344 22.344 0 12.316-10.02 22.336-22.344 22.336-12.316 0-22.336-10.02-22.336-22.336 0-12.324 10.02-22.344 22.336-22.344zm-70.055 18.703c12.633 0 22.902-10.27 22.902-22.902 0-12.633-10.27-22.902-22.902-22.902-12.633 0-22.902 10.27-22.902 22.902 0 12.633 10.27 22.902 22.902 22.902zm0-37.406c7.9961 0 14.504 6.5078 14.504 14.504 0 7.9961-6.5078 14.504-14.504 14.504s-14.504-6.5078-14.504-14.504c0-7.9961 6.5078-14.504 14.504-14.504zm-7.2539-19.141c-0.28516-2.3086 1.3438-4.4062 3.6406-4.6914l15.191-1.9023c2.418-0.31641 4.4062 1.3555 4.6914 3.6406 0.28516 2.3086-1.3438 4.4062-3.6406 4.6914l-15.188 1.9062c-0.17578 0.023438-0.35937 0.03125-0.52344 0.03125-2.0938 0-3.9062-1.5508-4.1719-3.6758zm17.578 75.688c0.65625 2.2188-0.61328 4.5625-2.8438 5.207-0.39453 0.12109-0.78906 0.17578-1.1797 0.17578-1.8164 0-3.4883-1.1797-4.0234-3.0195l-3.5781-12.172c-0.65625-2.2188 0.61328-4.5625 2.8438-5.207 2.2305-0.66797 4.5625 0.61328 5.207 2.8438zm91.906 4.5742 3.7969-11.703c0.71094-2.2109 3.0938-3.4336 5.2812-2.7031 2.2109 0.71094 3.4219 3.0859 2.7031 5.2812l-3.7969 11.703c-0.57031 1.7812-2.2188 2.9102-3.9922 2.9102-0.42578 0-0.86328-0.066406-1.2891-0.20703-2.2109-0.71094-3.4219-3.082-2.7031-5.2812zm-50.605 11.32c1.9258 1.2891 2.4297 3.9062 1.125 5.8281l-6.168 9.1445c-0.80859 1.2031-2.1328 1.8477-3.4766 1.8477-0.80859 0-1.6289-0.23047-2.3516-0.72266-1.9258-1.2891-2.4297-3.9062-1.125-5.8281l6.168-9.1445c1.3008-1.9336 3.9023-2.4375 5.8281-1.125zm-16.625-54.457c-1.9258-1.2891-2.4297-3.9062-1.125-5.8281l6.168-9.1445c1.2891-1.9375 3.8945-2.4375 5.8281-1.125 1.9258 1.2891 2.4297 3.9062 1.125 5.8281l-6.168 9.1445c-0.80859 1.2031-2.1328 1.8477-3.4766 1.8477-0.80859-0.003906-1.6289-0.23047-2.3516-0.72266zm-16.668 217.75-16.93 2.1211c-0.17578 0.023438-0.35938 0.03125-0.52344 0.03125-2.0898 0-3.9062-1.5547-4.168-3.6758-0.28516-2.3086 1.3438-4.4062 3.6406-4.6914l16.93-2.1211c2.4297-0.28516 4.4062 1.3555 4.6914 3.6406 0.28516 2.3086-1.3438 4.4102-3.6406 4.6953zm-25.508 51.93c0.65625 2.2188-0.61328 4.5625-2.8438 5.207-0.39453 0.12109-0.78906 0.17578-1.1797 0.17578-1.8164 0-3.4883-1.1797-4.0234-3.0195l-3.9922-13.574c-0.65625-2.2188 0.61328-4.5625 2.8438-5.207 2.2188-0.66797 4.5625 0.60156 5.207 2.8438zm95.023 36.859c0.65625 2.2188-0.61328 4.5625-2.8438 5.207-0.39453 0.12109-0.78906 0.17578-1.1797 0.17578-1.8164 0-3.4883-1.1797-4.0234-3.0195l-3.9922-13.574c-0.65625-2.2188 0.61328-4.5625 2.8438-5.207 2.2305-0.67969 4.5625 0.61328 5.207 2.8438zm9.7148-95.613-4.2344 13.059c-0.57031 1.7812-2.2188 2.9102-3.9922 2.9102-0.42578 0-0.86328-0.066407-1.2891-0.20703-2.2109-0.71094-3.4219-3.0859-2.7031-5.2812l4.2344-13.062c0.69922-2.2109 3.0859-3.4336 5.2812-2.7031 2.2109 0.71094 3.4258 3.0859 2.7031 5.2852zm-68.973 88.219c1.9258 1.2891 2.4297 3.9062 1.125 5.8281l-6.8789 10.195c-0.80859 1.2031-2.1328 1.8477-3.4766 1.8477-0.80859 0-1.6289-0.23047-2.3516-0.72266-1.9258-1.2891-2.4297-3.9062-1.125-5.8281l6.8789-10.195c1.2891-1.9336 3.8906-2.4453 5.8281-1.125zm86.188-42.906-6.8672 10.195c-0.80859 1.2031-2.1328 1.8477-3.4766 1.8477-0.80859 0-1.6289-0.23047-2.3516-0.72266-1.9141-1.2891-2.4297-3.9062-1.125-5.8281l6.8672-10.195c1.2891-1.9375 3.9062-2.4375 5.8281-1.125 1.9141 1.2891 2.4258 3.9023 1.125 5.8281zm-64.738-63.395c-1.9141-1.2891-2.4297-3.9062-1.125-5.8281l6.8672-10.195c1.3008-1.9375 3.8945-2.4375 5.8281-1.125 1.9141 1.2891 2.4297 3.9062 1.125 5.8281l-6.8672 10.195c-0.80859 1.2031-2.1328 1.8477-3.4766 1.8477-0.80859 0-1.6289-0.23047-2.3516-0.72266zm-3.4258 27.246c-17.523 0-31.773 14.25-31.773 31.773 0 17.523 14.25 31.785 31.773 31.785 17.523 0 31.773-14.262 31.773-31.785 0-17.523-14.25-31.773-31.773-31.773zm0 55.156c-12.883 0-23.375-10.488-23.375-23.383 0-12.883 10.488-23.375 23.375-23.375 12.883 0 23.375 10.488 23.375 23.375 0 12.895-10.488 23.383-23.375 23.383zm87.617-72.598c1.5742-9.6094 1.7578-18.852-4.8203-25.445-6.0352-6.0195-14.426-6.75-22.137-6.4961-10.758-8.375-22.82-14.379-35.922-17.848-4.168-4.2539-8.8906-7.8828-14.871-8.8281-11.727-1.8828-19.918 1.7305-25.871 6.5508-47.223 6.9648-82.844 45.961-85.691 93.547-5.6953 4.4844-10.305 10.547-10.305 20.105 0 12.949 8.0039 18.523 16.699 21.691 14.789 38.98 52.289 65.098 94.141 65.098 18.633 0 36.75-5.1562 52.535-14.812 3.8711-0.27734 7.4727-0.89453 10.258-2.5117 5.7148-3.3203 8.7031-8.4648 10.332-14.141 17.836-18.801 27.676-43.367 27.676-69.324 0-16.625-4.1992-33.016-12.023-47.586zm3.4609 51.039c-0.57422-3.4258-1.8672-7.0273-4.1445-10.793-4.4961-7.4258-3.6953-16.699-1.9961-26.094 4.1094 10.613 6.3047 21.965 6.3047 33.434 0 1.1602-0.125 2.3008-0.16406 3.4531zm-44.32-82.375c-2.2422-0.070312-4.1836-0.35547-5.543-1.0859-1.707-0.90625-3.4531-2.543-5.2422-4.4961 3.7031 1.625 7.3125 3.4648 10.785 5.582zm-72.41-10.105c-0.21484 0.30078-0.47266 0.64453-0.67578 0.92578-1.2148 1.6953-2.582 3.6211-3.2812 4.125-6.5938 4.8242-8.1914 9.5039-9.4727 13.266-0.95312 2.7656-1.6953 4.9648-4.4062 7.4609-1.7383 1.5859-5.043 1.6406-8.8828 1.707-5.5547 0.085938-12.469 0.20703-18.727 5.1094-8.8477 6.9336-7.6445 17.852-6.8594 25.07 0.21875 1.9805 0.42578 3.8516 0.32812 4.8789-0.63281 6.3867-6.7812 9.8672-13.902 13.891-0.41016 0.23438-0.84375 0.48438-1.2617 0.72266 4.7422-37.074 31.355-67.391 67.141-77.156zm-59.105 127.77c4.2383 1.0352 8.2383 2.0352 10.656 3.543 3.1602 1.9688 6.2109 9.6016 9.1562 16.984 1.5195 3.8086 3.1289 7.7539 4.918 11.566-10.395-8.625-18.875-19.48-24.73-32.094zm67.285 52.059c4.7227-1.0547 9.5195-2.3789 14.105-3.6602 5.9922-1.6719 11.648-3.25 15.773-3.7852 3.9258-0.53516 10.324 0.32812 17.117 1.2344 1.6133 0.21094 3.2188 0.39453 4.8281 0.59375-11.191 4.6641-23.215 7.2031-35.508 7.2031-5.5508 0-10.98-0.625-16.316-1.5859zm74.887-14.602c-5.043 2.9414-17.105 1.3438-26.785 0.054688-7.3516-0.97266-14.316-1.8828-19.316-1.2344-4.7148 0.625-10.652 2.2734-16.93 4.0352-11.582 3.2266-26 7.2617-33.25 4.4062-8.75-3.4219-13.812-16.109-18.277-27.312-3.7617-9.4297-7-17.566-12.512-21-3.6406-2.2656-8.4219-3.4336-13.477-4.6719-12.73-3.1172-20.465-5.7852-20.465-16.484 0-10.117 7.5156-14.359 16.211-19.281 7.9961-4.5273 17.062-9.6484 18.125-20.375 0.1875-1.9023-0.054688-4.0898-0.32812-6.6289-0.84375-7.6445-1.1055-13.781 3.6875-17.543 4.0234-3.1602 8.7188-3.2383 13.684-3.3125 5.0742-0.085938 10.324-0.17578 14.414-3.9141 4.2969-3.9492 5.6211-7.832 6.6836-10.938 1.125-3.3125 2.0234-5.9375 6.4844-9.1992 1.7812-1.3125 3.2695-3.3906 5.1523-6.0391 4.6055-6.4648 10.742-15.07 23.242-15.07 1.5 0 3.1055 0.13281 4.8008 0.39453 6.2461 0.99609 11.406 7.3164 16.395 13.422 3.9688 4.8555 7.7109 9.4492 12.305 11.891 4.9336 2.668 11.387 2.2188 18.18 1.7617 8.1602-0.54688 16.559-1.1055 21.414 3.75 5.207 5.207 3.2812 14.734 1.0625 25.77-2.5039 12.402-5.3477 26.457 1.8281 38.336 8.3242 13.738-0.6875 24.195-10.633 33.73-3.8164 3.6641-3.75 10.141-3.6758 18.32 0.09375 10.477 0.20312 22.355-8.0195 27.133zm16.414-27.211c-0.042968-4.125-0.10937-11.035 1.0938-12.184 4.4023-4.2188 11.418-10.977 14.707-19.66-2.4805 13.254-7.8945 25.703-15.793 36.676 0.015625-1.6641 0.007813-3.2891-0.007813-4.832zm-390.73-272.77c-1.793 1.4766-2.0469 4.125-0.57031 5.9062 0.83203 1.0039 2.0352 1.5312 3.2383 1.5312 0.94141 0 1.8906-0.31641 2.668-0.96094l8.332-6.8789 31.469 19.961c0.69922 0.44922 1.4766 0.65625 2.2539 0.65625 1.3906 0 2.7461-0.6875 3.543-1.9453 1.2461-1.957 0.66797-4.5625-1.2891-5.7969l-29.16-18.496 21.168-17.469 23.805 15.105-5.6523 5.2109c-1.707 1.5625-1.8164 4.2227-0.24219 5.9297 0.82031 0.89844 1.957 1.3555 3.0859 1.3555 1.0156 0 2.0352-0.37109 2.8438-1.1172l7.2969-6.7266 15.551 9.8672c0.69922 0.44922 1.4766 0.65625 2.2539 0.65625 1.3906 0 2.7461-0.6875 3.543-1.9453 1.2461-1.957 0.66797-4.5625-1.2891-5.7969l-13.664-8.668 20.543-18.934 16.582 10.52c0.69922 0.44922 1.4766 0.65625 2.2539 0.65625 1.3906 0 2.7461-0.6875 3.543-1.9453 1.2461-1.957 0.66797-4.5625-1.2891-5.7969l-14.695-9.3203 19.504-17.977 22.109 14.02c0.69922 0.44922 1.4766 0.65625 2.2539 0.65625 1.3906 0 2.7461-0.6875 3.543-1.9453 1.2461-1.957 0.66797-4.5625-1.2891-5.7969l-20.223-12.824 8.2773-7.6289c1.707-1.5625 1.8164-4.2227 0.24219-5.9297-1.5625-1.707-4.2227-1.8164-5.9297-0.24219l-9.9258 9.1484-19.902-12.621 6.0703-5.0117c1.793-1.4766 2.0469-4.125 0.57031-5.9062-1.4883-1.8047-4.1445-2.0469-5.9062-0.57031l-8.1875 6.7578-8.9492-5.6758c-1.9453-1.2344-4.5508-0.66797-5.7969 1.2891-1.2461 1.957-0.66797 4.5625 1.2891 5.7969l6.6406 4.2109-20.789 17.156-12.758-8.0938c-1.9492-1.2539-4.5391-0.67578-5.7969 1.2812-1.2461 1.957-0.66797 4.5625 1.2891 5.7969l10.449 6.6289-21.895 18.07-12.02-7.625c-1.9453-1.2461-4.5508-0.66797-5.7969 1.2891-1.2422 1.9609-0.66406 4.5625 1.293 5.8008l9.7109 6.1602-21.168 17.473-14.168-8.9883c-1.9375-1.2461-4.5508-0.66797-5.7969 1.2891-1.2461 1.957-0.66797 4.5625 1.2891 5.7969l11.859 7.5234zm97.965-69.977 20.324 12.891-19.504 17.977-21.609-13.707zm-27.602 22.785 22.031 13.977-20.543 18.934-23.387-14.836zm71.203 215.95-7.168-71.34-24.852 2.4844-6.832-32.461-29.398 6.1914 4.9062 23.301-5.6836-12.953-27.496 12.074 5.5547 12.668-14.453 2.5938-6.3359-17.438-28.086 10.633 22.082 60.898-0.69922 0.38281-25.582-46.5-26.348 14.406 13.352 24.441-10.551 5.7656 33.281 60.922-4.6133 3.793 70.086 115.18 23.047-5.4688 0.84375-1.9141c0.054687-0.13281 5.8398-12.766 28.023-21.789 22.148-9.0234 35.133-4.0234 35.23-3.9805l1.957 0.83203 20.32-12.207-30.242-131.4zm-14.691-62.156 6.3242 62.875-6.0352 0.52344-7.6445-17.418-5.6914-44.664zm-60.629 110.81-13.188-24.137 11.617-6.3438 14.668 26.855c-4.6523 1.6719-9.0352 2.8711-13.098 3.625zm-24.535-0.11328-21.922-40.137 11.617-6.3438 10.395 19.035-0.13672 0.074219 15.598 28.555c-6.1016 0.32422-11.301-0.23828-15.551-1.1836zm45.453-6.7188-13.461-24.645 0.11719-0.03125-9.6562-33.863 12.719-3.6328 16.805 58.852c-2.0195 1.1484-4.2109 2.25-6.5234 3.3203zm13.887-8.0859-14.07-49.32 19.648 44.801c-1.6641 1.5195-3.5391 3.0273-5.5781 4.5195zm11.855-11.129-26.426-60.25 12.117-5.3047 22.441 51.16c-1.0898 3.2617-3.4023 8.5312-8.1328 14.395zm-16.688-113.97 8.9453 42.48-2.25-5.1289-11.305 4.9609-8.3398-39.578zm-40.109 22.969 12.117-5.3164 12.84 29.281-5.6523 2.4805 5.1758 11.801-9.3633 2.6719-6.3008-35.133-5.8203 1.043zm2.0352 15.539 4.9609 27.695-9.3359 2.6641 9.1523 32.051-6.4141 3.5-11.395-63.586zm-45.707-6.4727 12.383-4.6797 18.434 50.715 5.2109 29.07-13.711-25.105-3.4922 1.9062zm-29.871 27.605 11.625-6.3555 21.543 39.125-3.3203 1.8164-12.086-22.129-8.4375 4.6094zm2.8008 30.211 11.617-6.3555 27.277 49.941-10.41 8.5586zm28.23 63.227 10.77-8.8477 61.988 110.32-9.625 2.2734zm107.86 76.367c-15.473 6.3047-24.016 14.309-28.438 19.824l-57.531-102.39c0.16797 0.050781 0.36328 0.097656 0.53516 0.14844l0.30469 0.55859 0.57422-0.31641c6.2734 1.7617 14.559 2.8594 24.711 1.8047l0.078125 0.14062 0.31641-0.17187c7.2109-0.78516 15.234-2.582 24.195-6.2266 22.746-9.2539 33.773-22.652 39.141-32.496l30.305 113.46c-7.0078-0.86328-18.707-0.63672-34.191 5.6562zm42.648-6.543-32.648-122.25 13.898-1.1836 27.223 118.34z"/>
  <use x="70" y="728" xlink:href="#l"/>
  <use x="111.097656" y="728" xlink:href="#h"/>
  <use x="138.714844" y="728" xlink:href="#a"/>
  <use x="176.695312" y="728" xlink:href="#g"/>
  <use x="214.484375" y="728" xlink:href="#f"/>
  <use x="241.253906" y="728" xlink:href="#a"/>
  <use x="279.234375" y="728" xlink:href="#e"/>
  <use x="338.816406" y="728" xlink:href="#d"/>
  <use x="378.902344" y="728" xlink:href="#c"/>
  <use x="434.902344" y="728" xlink:href="#b"/>
  <use x="478.242188" y="728" xlink:href="#k"/>
  <use x="516.441406" y="728" xlink:href="#j"/>
  <use x="564.046875" y="728" xlink:href="#i"/>
 </g>
</svg>
