<?xml version="1.0" encoding="UTF-8"?>
<svg width="700pt" height="700pt" version="1.1" viewBox="0 0 700 700" xmlns="http://www.w3.org/2000/svg" xmlns:xlink="http://www.w3.org/1999/xlink">
 <defs>
  <symbol id="x" overflow="visible">
   <path d="m18.766-1.125c-0.96875 0.5-1.9805 0.875-3.0312 1.125-1.043 0.25781-2.1367 0.39062-3.2812 0.39062-3.3984 0-6.0898-0.94531-8.0781-2.8438-1.9922-1.9062-2.9844-4.4844-2.9844-7.7344 0-3.2578 0.99219-5.8359 2.9844-7.7344 1.9883-1.9062 4.6797-2.8594 8.0781-2.8594 1.1445 0 2.2383 0.13281 3.2812 0.39062 1.0508 0.25 2.0625 0.625 3.0312 1.125v4.2188c-0.98047-0.65625-1.9453-1.1406-2.8906-1.4531-0.94922-0.3125-1.9492-0.46875-3-0.46875-1.875 0-3.3516 0.60547-4.4219 1.8125-1.0742 1.1992-1.6094 2.8555-1.6094 4.9688 0 2.1055 0.53516 3.7617 1.6094 4.9688 1.0703 1.1992 2.5469 1.7969 4.4219 1.7969 1.0508 0 2.0508-0.14844 3-0.45312 0.94531-0.3125 1.9102-0.80078 2.8906-1.4688z"/>
  </symbol>
  <symbol id="d" overflow="visible">
   <path d="m13.734-11.141c-0.4375-0.19531-0.87109-0.34375-1.2969-0.4375-0.41797-0.10156-0.83984-0.15625-1.2656-0.15625-1.2617 0-2.2305 0.40625-2.9062 1.2188-0.67969 0.80469-1.0156 1.9531-1.0156 3.4531v7.0625h-4.8906v-15.312h4.8906v2.5156c0.625-1 1.3438-1.7266 2.1562-2.1875 0.82031-0.46875 1.8008-0.70312 2.9375-0.70312 0.16406 0 0.34375 0.011719 0.53125 0.03125 0.19531 0.011719 0.47656 0.039062 0.84375 0.078125z"/>
  </symbol>
  <symbol id="a" overflow="visible">
   <path d="m17.641-7.7031v1.4062h-11.453c0.125 1.1484 0.53906 2.0078 1.25 2.5781 0.70703 0.57422 1.7031 0.85938 2.9844 0.85938 1.0312 0 2.082-0.14844 3.1562-0.45312 1.082-0.3125 2.1914-0.77344 3.3281-1.3906v3.7656c-1.1562 0.4375-2.3125 0.76562-3.4688 0.98438-1.1562 0.22656-2.3125 0.34375-3.4688 0.34375-2.7734 0-4.9297-0.70312-6.4688-2.1094-1.5312-1.4062-2.2969-3.3789-2.2969-5.9219 0-2.5 0.75391-4.4609 2.2656-5.8906 1.5078-1.4375 3.582-2.1562 6.2188-2.1562 2.4062 0 4.332 0.73047 5.7812 2.1875 1.4453 1.4492 2.1719 3.3828 2.1719 5.7969zm-5.0312-1.625c0-0.92578-0.27344-1.6719-0.8125-2.2344-0.54297-0.57031-1.25-0.85938-2.125-0.85938-0.94922 0-1.7188 0.26562-2.3125 0.79688s-0.96484 1.2969-1.1094 2.2969z"/>
  </symbol>
  <symbol id="g" overflow="visible">
   <path d="m9.2188-6.8906c-1.0234 0-1.793 0.17188-2.3125 0.51562-0.51172 0.34375-0.76562 0.85547-0.76562 1.5312 0 0.625 0.20703 1.1172 0.625 1.4688 0.41406 0.34375 0.98828 0.51562 1.7188 0.51562 0.92578 0 1.7031-0.32812 2.3281-0.98438 0.63281-0.66406 0.95312-1.4922 0.95312-2.4844v-0.5625zm7.4688-1.8438v8.7344h-4.9219v-2.2656c-0.65625 0.92969-1.3984 1.6055-2.2188 2.0312-0.82422 0.41406-1.8242 0.625-3 0.625-1.5859 0-2.8711-0.45703-3.8594-1.375-0.99219-0.92578-1.4844-2.1289-1.4844-3.6094 0-1.7891 0.61328-3.1016 1.8438-3.9375 1.2383-0.84375 3.1797-1.2656 5.8281-1.2656h2.8906v-0.39062c0-0.76953-0.30859-1.332-0.92188-1.6875-0.61719-0.36328-1.5703-0.54688-2.8594-0.54688-1.0547 0-2.0312 0.10547-2.9375 0.3125-0.89844 0.21094-1.7305 0.52344-2.5 0.9375v-3.7344c1.0391-0.25 2.0859-0.44141 3.1406-0.57812 1.0625-0.13281 2.125-0.20312 3.1875-0.20312 2.7578 0 4.75 0.54688 5.9688 1.6406 1.2266 1.0859 1.8438 2.8555 1.8438 5.3125z"/>
  </symbol>
  <symbol id="c" overflow="visible">
   <path d="m7.7031-19.656v4.3438h5.0469v3.5h-5.0469v6.5c0 0.71094 0.14062 1.1875 0.42188 1.4375s0.83594 0.375 1.6719 0.375h2.5156v3.5h-4.1875c-1.9375 0-3.3125-0.39844-4.125-1.2031-0.80469-0.8125-1.2031-2.1797-1.2031-4.1094v-6.5h-2.4219v-3.5h2.4219v-4.3438z"/>
  </symbol>
  <symbol id="f" overflow="visible">
   <path d="m12.766-13.078v-8.2031h4.9219v21.281h-4.9219v-2.2188c-0.66797 0.90625-1.4062 1.5703-2.2188 1.9844s-1.7578 0.625-2.8281 0.625c-1.8867 0-3.4336-0.75-4.6406-2.25-1.2109-1.5-1.8125-3.4258-1.8125-5.7812 0-2.3633 0.60156-4.2969 1.8125-5.7969 1.207-1.5 2.7539-2.25 4.6406-2.25 1.0625 0 2 0.21484 2.8125 0.64062 0.82031 0.42969 1.5664 1.0859 2.2344 1.9688zm-3.2188 9.9219c1.0391 0 1.8359-0.37891 2.3906-1.1406 0.55078-0.76953 0.82812-1.8828 0.82812-3.3438 0-1.457-0.27734-2.5664-0.82812-3.3281-0.55469-0.76953-1.3516-1.1562-2.3906-1.1562-1.043 0-1.8398 0.38672-2.3906 1.1562-0.55469 0.76172-0.82812 1.8711-0.82812 3.3281 0 1.4609 0.27344 2.5742 0.82812 3.3438 0.55078 0.76172 1.3477 1.1406 2.3906 1.1406z"/>
  </symbol>
  <symbol id="j" overflow="visible">
   <path d="m10.5-3.1562c1.0508 0 1.8516-0.37891 2.4062-1.1406 0.55078-0.76953 0.82812-1.8828 0.82812-3.3438 0-1.457-0.27734-2.5664-0.82812-3.3281-0.55469-0.76953-1.3555-1.1562-2.4062-1.1562-1.0547 0-1.8594 0.38672-2.4219 1.1562-0.55469 0.77344-0.82812 1.8828-0.82812 3.3281 0 1.4492 0.27344 2.5586 0.82812 3.3281 0.5625 0.77344 1.3672 1.1562 2.4219 1.1562zm-3.25-9.9219c0.67578-0.88281 1.4219-1.5391 2.2344-1.9688 0.82031-0.42578 1.7656-0.64062 2.8281-0.64062 1.8945 0 3.4453 0.75 4.6562 2.25 1.207 1.5 1.8125 3.4336 1.8125 5.7969 0 2.3555-0.60547 4.2812-1.8125 5.7812-1.2109 1.5-2.7617 2.25-4.6562 2.25-1.0625 0-2.0078-0.21094-2.8281-0.625-0.8125-0.42578-1.5586-1.0859-2.2344-1.9844v2.2188h-4.8906v-21.281h4.8906z"/>
  </symbol>
  <symbol id="e" overflow="visible">
   <path d="m0.34375-15.312h4.8906l4.125 10.391 3.5-10.391h4.8906l-6.4375 16.766c-0.64844 1.6953-1.4023 2.8828-2.2656 3.5625-0.86719 0.6875-2 1.0312-3.4062 1.0312h-2.8438v-3.2188h1.5312c0.83203 0 1.4375-0.13672 1.8125-0.40625 0.38281-0.26172 0.67969-0.73047 0.89062-1.4062l0.14062-0.42188z"/>
  </symbol>
  <symbol id="i" overflow="visible">
   <path d="m10.047-11.359c1.1016 0 1.8945-0.20312 2.375-0.60938 0.47656-0.41406 0.71875-1.0938 0.71875-2.0312 0-0.92578-0.24219-1.5859-0.71875-1.9844-0.48047-0.40625-1.2734-0.60938-2.375-0.60938h-2.2188v5.2344zm-2.2188 3.6406v7.7188h-5.25v-20.406h8.0312c2.6875 0 4.6562 0.45312 5.9062 1.3594 1.2578 0.89844 1.8906 2.3203 1.8906 4.2656 0 1.3555-0.32812 2.4648-0.98438 3.3281-0.64844 0.86719-1.625 1.5-2.9375 1.9062 0.71875 0.16797 1.3594 0.54297 1.9219 1.125 0.57031 0.57422 1.1484 1.4492 1.7344 2.625l2.8594 5.7969h-5.6094l-2.4844-5.0781c-0.5-1.0195-1.0117-1.7109-1.5312-2.0781-0.51172-0.375-1.1953-0.5625-2.0469-0.5625z"/>
  </symbol>
  <symbol id="b" overflow="visible">
   <path d="m9.6406-12.188c-1.0859 0-1.9141 0.39062-2.4844 1.1719-0.57422 0.78125-0.85938 1.9062-0.85938 3.375s0.28516 2.5938 0.85938 3.375c0.57031 0.77344 1.3984 1.1562 2.4844 1.1562 1.0625 0 1.875-0.38281 2.4375-1.1562 0.57031-0.78125 0.85938-1.9062 0.85938-3.375s-0.28906-2.5938-0.85938-3.375c-0.5625-0.78125-1.375-1.1719-2.4375-1.1719zm0-3.5c2.6328 0 4.6914 0.71484 6.1719 2.1406 1.4766 1.418 2.2188 3.3867 2.2188 5.9062 0 2.5117-0.74219 4.4805-2.2188 5.9062-1.4805 1.418-3.5391 2.125-6.1719 2.125-2.6484 0-4.7148-0.70703-6.2031-2.125-1.4922-1.4258-2.2344-3.3945-2.2344-5.9062 0-2.5195 0.74219-4.4883 2.2344-5.9062 1.4883-1.4258 3.5547-2.1406 6.2031-2.1406z"/>
  </symbol>
  <symbol id="w" overflow="visible">
   <path d="m2.3594-21.281h4.8906v21.281h-4.8906z"/>
  </symbol>
  <symbol id="v" overflow="visible">
   <path d="m11.359-7.375c0 1.125 0.23828 2.0117 0.71875 2.6562 0.47656 0.64844 1.1289 0.96875 1.9531 0.96875 0.8125 0 1.457-0.32031 1.9375-0.96875 0.47656-0.65625 0.71875-1.5391 0.71875-2.6562 0-1.1016-0.24609-1.9727-0.73438-2.6094-0.48047-0.64453-1.1328-0.96875-1.9531-0.96875-0.80469 0-1.4453 0.32422-1.9219 0.96875-0.48047 0.63672-0.71875 1.5078-0.71875 2.6094zm5.6094 4.125c-0.27344 0.64844-0.71484 1.1523-1.3281 1.5156-0.60547 0.35547-1.3125 0.53125-2.125 0.53125-1.5625 0-2.8359-0.56641-3.8125-1.7031-0.98047-1.1328-1.4688-2.6133-1.4688-4.4375 0-1.8203 0.48828-3.3008 1.4688-4.4375 0.98828-1.1445 2.2578-1.7188 3.8125-1.7188 0.8125 0 1.5195 0.18359 2.125 0.54688 0.61328 0.36719 1.0547 0.87109 1.3281 1.5156v-1.7812h2.8594v9.4688c1.125-0.16406 2.0078-0.70703 2.6562-1.625 0.65625-0.91406 0.98438-2.0938 0.98438-3.5312 0-0.90625-0.13672-1.7539-0.40625-2.5469-0.26172-0.80078-0.66406-1.5352-1.2031-2.2031-0.86719-1.1133-1.9492-1.9688-3.25-2.5625-1.293-0.60156-2.6992-0.90625-4.2188-0.90625-1.0547 0-2.0625 0.14062-3.0312 0.42188-0.96875 0.27344-1.8594 0.67969-2.6719 1.2188-1.3555 0.88672-2.4062 2.0391-3.1562 3.4531-0.75 1.418-1.125 2.9531-1.125 4.6094 0 1.3555 0.23828 2.6328 0.71875 3.8281 0.48828 1.1875 1.1953 2.2344 2.125 3.1406 0.90625 0.89453 1.9453 1.5781 3.125 2.0469 1.1875 0.46875 2.4531 0.70312 3.7969 0.70312 1.1445 0 2.2891-0.21484 3.4375-0.64062 1.1445-0.42969 2.125-1.0078 2.9375-1.7344l1.4688 2.2188c-1.1484 0.875-2.3906 1.5469-3.7344 2.0156-1.3438 0.47656-2.7109 0.71875-4.0938 0.71875-1.6875 0-3.2812-0.30469-4.7812-0.90625-1.4922-0.59375-2.8203-1.4609-3.9844-2.5938-1.168-1.1484-2.0586-2.4688-2.6719-3.9688-0.60547-1.5-0.90625-3.1094-0.90625-4.8281 0-1.6562 0.30469-3.2344 0.92188-4.7344 0.625-1.5078 1.5078-2.8359 2.6562-3.9844 1.1562-1.125 2.4922-1.9922 4.0156-2.6094 1.5312-0.625 3.1133-0.9375 4.75-0.9375 2.0391 0 3.8945 0.39062 5.5625 1.1719 1.6758 0.78125 3.0703 1.9023 4.1875 3.3594 0.6875 0.89844 1.2031 1.8711 1.5469 2.9219 0.35156 1.043 0.53125 2.1367 0.53125 3.2812 0 2.4688-0.74609 4.3867-2.2344 5.75-1.4805 1.3672-3.5742 2.0469-6.2812 2.0469h-0.53125z"/>
  </symbol>
  <symbol id="u" overflow="visible">
   <path d="m14.312-14.828v3.7188c-1.043-0.4375-2.0547-0.76562-3.0312-0.98438-0.98047-0.21875-1.9023-0.32812-2.7656-0.32812-0.92969 0-1.6211 0.11719-2.0781 0.34375-0.44922 0.23047-0.67188 0.58984-0.67188 1.0781 0 0.38672 0.17188 0.68359 0.51562 0.89062 0.34375 0.21094 0.95703 0.36719 1.8438 0.46875l0.85938 0.125c2.5078 0.32422 4.1953 0.85156 5.0625 1.5781 0.86328 0.73047 1.2969 1.8711 1.2969 3.4219 0 1.6367-0.60547 2.8672-1.8125 3.6875-1.1992 0.8125-2.9922 1.2188-5.375 1.2188-1.0234 0-2.0742-0.078125-3.1562-0.23438-1.0742-0.15625-2.1797-0.39453-3.3125-0.71875v-3.7188c0.96875 0.48047 1.9609 0.83984 2.9844 1.0781 1.0312 0.23047 2.0781 0.34375 3.1406 0.34375 0.95703 0 1.6758-0.12891 2.1562-0.39062 0.47656-0.26953 0.71875-0.66406 0.71875-1.1875 0-0.4375-0.16797-0.75781-0.5-0.96875-0.33594-0.21875-0.99609-0.38281-1.9844-0.5l-0.85938-0.10938c-2.1797-0.26953-3.7031-0.77344-4.5781-1.5156-0.875-0.73828-1.3125-1.8594-1.3125-3.3594 0-1.625 0.55078-2.8281 1.6562-3.6094 1.1133-0.78906 2.8203-1.1875 5.125-1.1875 0.89453 0 1.8359 0.074219 2.8281 0.21875 1 0.13672 2.082 0.35156 3.25 0.64062z"/>
  </symbol>
  <symbol id="t" overflow="visible">
   <path d="m2.3594-15.312h4.8906v15.312h-4.8906zm0-5.9688h4.8906v4h-4.8906z"/>
  </symbol>
  <symbol id="s" overflow="visible">
   <path d="m12.766-2.5938c-0.66797 0.88672-1.4062 1.543-2.2188 1.9688-0.8125 0.41797-1.7578 0.625-2.8281 0.625-1.8672 0-3.4062-0.73438-4.625-2.2031-1.2188-1.4766-1.8281-3.3516-1.8281-5.625 0-2.2891 0.60938-4.1641 1.8281-5.625 1.2188-1.4688 2.7578-2.2031 4.625-2.2031 1.0703 0 2.0156 0.21484 2.8281 0.64062 0.8125 0.41797 1.5508 1.0742 2.2188 1.9688v-2.2656h4.9219v13.766c0 2.457-0.77734 4.3359-2.3281 5.6406-1.5547 1.3008-3.8086 1.9531-6.7656 1.9531-0.94922 0-1.8711-0.074219-2.7656-0.21875-0.89844-0.14844-1.7969-0.37109-2.7031-0.67188v-3.8125c0.86328 0.48828 1.7031 0.85156 2.5156 1.0938 0.82031 0.23828 1.6484 0.35938 2.4844 0.35938 1.6016 0 2.7734-0.35156 3.5156-1.0469 0.75-0.69922 1.125-1.7969 1.125-3.2969zm-3.2188-9.5312c-1.0117 0-1.8047 0.375-2.375 1.125-0.5625 0.74219-0.84375 1.7969-0.84375 3.1719 0 1.3984 0.26953 2.4609 0.8125 3.1875 0.55078 0.71875 1.3516 1.0781 2.4062 1.0781 1.0195 0 1.8125-0.36719 2.375-1.1094 0.5625-0.75 0.84375-1.8008 0.84375-3.1562 0-1.375-0.28125-2.4297-0.84375-3.1719-0.5625-0.75-1.3555-1.125-2.375-1.125z"/>
  </symbol>
  <symbol id="h" overflow="visible">
   <path d="m17.75-9.3281v9.3281h-4.9219v-7.1406c0-1.3203-0.03125-2.2344-0.09375-2.7344s-0.16797-0.86719-0.3125-1.1094c-0.1875-0.3125-0.44922-0.55469-0.78125-0.73438-0.32422-0.17578-0.69531-0.26562-1.1094-0.26562-1.0234 0-1.8242 0.39844-2.4062 1.1875-0.58594 0.78125-0.875 1.8711-0.875 3.2656v7.5312h-4.8906v-15.312h4.8906v2.2344c0.73828-0.88281 1.5195-1.5391 2.3438-1.9688 0.83203-0.42578 1.75-0.64062 2.75-0.64062 1.7695 0 3.1133 0.54688 4.0312 1.6406 0.91406 1.0859 1.375 2.6562 1.375 4.7188z"/>
  </symbol>
  <symbol id="r" overflow="visible">
   <path d="m12.422-21.281v3.2188h-2.7031c-0.6875 0-1.1719 0.125-1.4531 0.375-0.27344 0.25-0.40625 0.6875-0.40625 1.3125v1.0625h4.1875v3.5h-4.1875v11.812h-4.8906v-11.812h-2.4375v-3.5h2.4375v-1.0625c0-1.6641 0.46094-2.8984 1.3906-3.7031 0.92578-0.80078 2.3672-1.2031 4.3281-1.2031z"/>
  </symbol>
  <symbol id="q" overflow="visible">
   <path d="m16.547-12.766c0.61328-0.94531 1.3477-1.6719 2.2031-2.1719 0.85156-0.5 1.7891-0.75 2.8125-0.75 1.7578 0 3.0977 0.54688 4.0156 1.6406 0.92578 1.0859 1.3906 2.6562 1.3906 4.7188v9.3281h-4.9219v-7.9844-0.35938c0.007813-0.13281 0.015625-0.32031 0.015625-0.5625 0-1.082-0.16406-1.8633-0.48438-2.3438-0.3125-0.48828-0.82422-0.73438-1.5312-0.73438-0.92969 0-1.6484 0.38672-2.1562 1.1562-0.51172 0.76172-0.77344 1.8672-0.78125 3.3125v7.5156h-4.9219v-7.9844c0-1.6953-0.14844-2.7852-0.4375-3.2656-0.29297-0.48828-0.8125-0.73438-1.5625-0.73438-0.9375 0-1.6641 0.38672-2.1719 1.1562-0.51172 0.76172-0.76562 1.8594-0.76562 3.2969v7.5312h-4.9219v-15.312h4.9219v2.2344c0.60156-0.86328 1.2891-1.5156 2.0625-1.9531 0.78125-0.4375 1.6406-0.65625 2.5781-0.65625 1.0625 0 2 0.25781 2.8125 0.76562 0.8125 0.51172 1.4258 1.2305 1.8438 2.1562z"/>
  </symbol>
  <symbol id="p" overflow="visible">
   <path d="m17.75-9.3281v9.3281h-4.9219v-7.1094c0-1.3438-0.03125-2.2656-0.09375-2.7656s-0.16797-0.86719-0.3125-1.1094c-0.1875-0.3125-0.44922-0.55469-0.78125-0.73438-0.32422-0.17578-0.69531-0.26562-1.1094-0.26562-1.0234 0-1.8242 0.39844-2.4062 1.1875-0.58594 0.78125-0.875 1.8711-0.875 3.2656v7.5312h-4.8906v-21.281h4.8906v8.2031c0.73828-0.88281 1.5195-1.5391 2.3438-1.9688 0.83203-0.42578 1.75-0.64062 2.75-0.64062 1.7695 0 3.1133 0.54688 4.0312 1.6406 0.91406 1.0859 1.375 2.6562 1.375 4.7188z"/>
  </symbol>
  <symbol id="o" overflow="visible">
   <path d="m2.5781-20.406h5.875l7.4219 14v-14h4.9844v20.406h-5.875l-7.4219-14v14h-4.9844z"/>
  </symbol>
  <symbol id="n" overflow="visible">
   <path d="m2.1875-5.9688v-9.3438h4.9219v1.5312c0 0.83594-0.007813 1.875-0.015625 3.125-0.011719 1.25-0.015625 2.0859-0.015625 2.5 0 1.2422 0.03125 2.1328 0.09375 2.6719 0.070313 0.54297 0.17969 0.93359 0.32812 1.1719 0.20703 0.32422 0.47266 0.57422 0.79688 0.75 0.32031 0.16797 0.69141 0.25 1.1094 0.25 1.0195 0 1.8203-0.39062 2.4062-1.1719 0.58203-0.78125 0.875-1.8672 0.875-3.2656v-7.5625h4.8906v15.312h-4.8906v-2.2188c-0.74219 0.89844-1.5234 1.5586-2.3438 1.9844-0.82422 0.41406-1.7344 0.625-2.7344 0.625-1.7617 0-3.1055-0.53906-4.0312-1.625-0.92969-1.082-1.3906-2.6602-1.3906-4.7344z"/>
  </symbol>
  <symbol id="m" overflow="visible">
   <path d="m2.5781-20.406h8.7344c2.5938 0 4.582 0.57812 5.9688 1.7344 1.3945 1.1484 2.0938 2.7891 2.0938 4.9219 0 2.1367-0.69922 3.7812-2.0938 4.9375-1.3867 1.1562-3.375 1.7344-5.9688 1.7344h-3.4844v7.0781h-5.25zm5.25 3.8125v5.7031h2.9219c1.0195 0 1.8047-0.25 2.3594-0.75 0.5625-0.5 0.84375-1.2031 0.84375-2.1094 0-0.91406-0.28125-1.6172-0.84375-2.1094-0.55469-0.48828-1.3398-0.73438-2.3594-0.73438z"/>
  </symbol>
  <symbol id="l" overflow="visible">
   <path d="m2.3594-15.312h4.8906v15.031c0 2.0508-0.49609 3.6172-1.4844 4.7031-0.98047 1.082-2.4062 1.625-4.2812 1.625h-2.4219v-3.2188h0.85938c0.92578 0 1.5625-0.21094 1.9062-0.625 0.35156-0.41797 0.53125-1.2461 0.53125-2.4844zm0-5.9688h4.8906v4h-4.8906z"/>
  </symbol>
  <symbol id="k" overflow="visible">
   <path d="m14.719-14.828v3.9844c-0.65625-0.45703-1.3242-0.79688-2-1.0156-0.66797-0.21875-1.3594-0.32812-2.0781-0.32812-1.3672 0-2.4336 0.40234-3.2031 1.2031-0.76172 0.79297-1.1406 1.9062-1.1406 3.3438 0 1.4297 0.37891 2.543 1.1406 3.3438 0.76953 0.79297 1.8359 1.1875 3.2031 1.1875 0.75781 0 1.4844-0.10938 2.1719-0.32812 0.6875-0.22656 1.3203-0.56641 1.9062-1.0156v4c-0.76172 0.28125-1.5391 0.48828-2.3281 0.625-0.78125 0.14453-1.5742 0.21875-2.375 0.21875-2.7617 0-4.9219-0.70703-6.4844-2.125-1.5547-1.4141-2.3281-3.3828-2.3281-5.9062 0-2.5312 0.77344-4.5039 2.3281-5.9219 1.5625-1.4141 3.7227-2.125 6.4844-2.125 0.80078 0 1.5938 0.074219 2.375 0.21875 0.78125 0.13672 1.5547 0.35156 2.3281 0.64062z"/>
  </symbol>
 </defs>
 <g>
  <path d="m241.41 61.086c-0.29688 0.027343-0.59375 0.085937-0.875 0.17578-0.64453 0.14844-1.2461 0.44922-1.75 0.875-84.438 67.984-144.04 177.86-147.7 304.86h-0.003906c-0.30078 1.2227-0.039063 2.5195 0.71875 3.5273 0.75391 1.0078 1.9219 1.625 3.1836 1.6797 1.2578 0.050781 2.4766-0.46484 3.3125-1.4062 0.83984-0.94141 1.2109-2.2109 1.0117-3.4531 3.5898-124.71 62.227-232.34 144.73-298.82 1.6016-1.0508 2.2891-3.0547 1.6719-4.8672-0.61719-1.8164-2.3867-2.9805-4.2969-2.832zm42.699 25.898c-0.58203 0.17578-1.1211 0.47266-1.5742 0.875-88.441 71.137-139.79 169.62-141.93 273.35l-0.003907 0.003906c-0.007812 0.17188-0.007812 0.34766 0 0.52344-0.042968 0.35156-0.042968 0.70312 0 1.0508v0.17578c0.039063 0.23438 0.097657 0.46875 0.17578 0.69922l10.852 48.125c0.48828 1.9023 2.2344 3.2109 4.1992 3.1484h66.148c0.42969 4.7461 0.76563 9.3359 1.3984 14.875-13.074 6.1992-22.574 18.02-22.574 32.199 0 20.793 19.613 36.926 42.875 36.926s42.875-16.129 42.875-36.926c0-13.66-8.8164-25.305-21.176-31.676 0.83984-5.6914 1.6055-10.594 2.2734-15.398h59.672c-0.35937 1.6523-0.69922 3.3008-0.69922 5.0742 0 17.113 16.074 30.449 35 30.449 18.926 0 35.176-13.336 35.176-30.449 0-1.793-0.14453-3.4102-0.52344-5.0742h45.148c-0.17188 5.0391-0.83203 10.016-1.75 14.875-13.238 6.1133-23.102 17.895-23.102 32.199 0 20.797 19.613 36.926 42.875 36.926 23.262 0 43.051-16.129 43.051-36.926 0-13.727-8.9141-25.191-21.352-31.5 0.007813-4.7617 0.019531-10.117 0.17578-15.574h123.38c1.3242 0.042969 2.5898-0.53906 3.4141-1.5742 0.82812-1.0312 1.1172-2.3945 0.78906-3.6758l-10.852-41.648c0.003906-0.11719 0.003906-0.23437 0-0.34766-0.039063-0.23828-0.097656-0.47266-0.17578-0.69922-0.050782-0.12109-0.10938-0.23438-0.17578-0.34766 0.003907-0.058593 0.003907-0.11719 0-0.17578-0.054687-0.058594-0.11328-0.11719-0.17187-0.17188-0.16406-0.44531-0.40234-0.85938-0.70313-1.2266-0.054687-0.058593-0.11328-0.11719-0.17187-0.17187v-0.17578l-308.35-276.33-0.35156-0.35156v0.003906c-1.0234-0.97656-2.4727-1.3711-3.8477-1.0508zm0.875 9.8008 297.67 266.7-84-1.0508h-0.17578c-1.2227-0.066406-2.3516 0.17969-3.5 0.34766-2.2891 0.33984-4.3867 1.1367-6.3008 2.2734-0.80469 0.47656-1.5508 0.98437-2.2734 1.5742-0.16406 0.13281-0.36328 0.20703-0.52344 0.34766-0.84375 0.75-1.5508 1.5703-2.2734 2.4492-0.31641 0.37891-0.75781 0.64453-1.0508 1.0508-0.33594 0.46484-0.5625 1.082-0.875 1.5742-0.24609 0.38672-0.46875 0.82031-0.69922 1.2266-0.32812 0.58203-0.75 1.1367-1.0508 1.75-0.59375 1.1875-1.082 2.4023-1.5742 3.6758-0.042969 0.11719-0.13281 0.23438-0.17578 0.34766-0.69922 1.9102-1.2227 3.8789-1.75 5.9492-0.29297 1.0898-0.62109 2.1953-0.875 3.3242-0.074219 0.35156-0.10547 0.69922-0.17578 1.0508-0.03125 0.16406 0.03125 0.35938 0 0.52734-1.3594 6.6172-2.25 13.625-2.625 20.648v0.003907c-0.023437 0.47266 0.039063 0.94531 0.17578 1.3984-0.33984 7.5469-0.35156 14.773-0.35156 20.824-0.011719 1.6562 0.94531 3.1602 2.4492 3.8516 11.5 4.832 19.074 14.375 19.074 25.375 0 15.43-15.258 28.523-34.648 28.523-19.395 0-34.477-13.094-34.477-28.523 0-11.242 8.1055-21.047 20.125-25.727h0.003907c1.3594-0.52344 2.3555-1.7148 2.625-3.1484 1.4492-6.9414 2.1406-14.27 2.1016-21.523l-0.003906-0.003907c0.125-0.57422 0.125-1.1719 0-1.75-0.19141-8.0586-1.3555-15.98-3.8516-23.102-4.8984-13.98-15.73-25.051-32.375-25.375h-0.17578c-7.457-0.33594-13.074-0.42969-17.676 0.34766-4.6445 0.78516-8.5703 2.7461-11.199 5.9492-5.207 6.3438-5.6875 15.238-8.9258 30.102-0.03125 0.15234-0.14062 0.19531-0.17578 0.34766h0.003906c-0.011719 0.17578-0.011719 0.35156 0 0.52734-0.058594 0.40625-0.058594 0.82031 0 1.2266 0.12109 0.56641 0.35938 1.1016 0.69922 1.5742 0.097656 0.24219 0.21484 0.47656 0.35156 0.69922h0.17578c0.054687 0.058593 0.11328 0.11719 0.17578 0.17578h0.17188c0.054687 0.11719 0.11328 0.23438 0.17578 0.34375 0.058594 0.003906 0.11719 0.003906 0.17578 0 0.83594 0.51562 1.6914 1.1719 2.4492 1.75s1.4258 1.1133 2.1016 1.75c0.35547 0.33594 0.72266 0.69922 1.0508 1.0508 0.30078 0.32031 0.59766 0.72266 0.875 1.0508 0.58203 0.6875 1.0938 1.3672 1.5742 2.1016 0.44922 0.69141 0.87109 1.3711 1.2266 2.1016l-0.003906-0.003906c0.085937 0.30469 0.20312 0.59766 0.35156 0.875 0.90234 2.1211 1.3984 4.293 1.3984 6.6484 0 11.73-11.734 22.051-26.773 22.051-15.043 0-26.602-10.32-26.602-22.051 0-2.4102 0.48438-4.6445 1.3984-6.8242h0.003907c0.13672-0.21875 0.25391-0.45312 0.34766-0.69922 0.035156-0.074219 0.14062-0.10156 0.17578-0.17188 0.5-1.0352 1.0625-2.0195 1.75-2.9766 0.75781-1.043 1.6523-2.0508 2.625-2.9766s1.9766-1.8242 3.1484-2.625c1.1719-0.79688 2.4922-1.6133 3.8516-2.2734 0.53516-0.24609 1.0117-0.60547 1.4023-1.0508 0.058593-0.054687 0.11719-0.11328 0.17188-0.17188 0.003906-0.058594 0.003906-0.11719 0-0.17188 0.12109-0.054687 0.23828-0.11328 0.35156-0.17578v-0.17188c0.058594-0.058594 0.11719-0.11719 0.17578-0.17578v-0.17188c0.058593-0.058594 0.11719-0.11328 0.17578-0.17578v-0.17188c0.078125-0.22656 0.13672-0.46094 0.17188-0.69922 0.003906-0.058594 0.003906-0.11719 0-0.17578 0.082031-0.46094 0.082031-0.9375 0-1.3984 0.007812-0.11719 0.007812-0.23047 0-0.34766 0.3125-8.7031-0.35547-15.445-2.1016-20.648-1.8438-5.4961-5.1055-9.4336-9.1016-11.727-7.9375-4.5547-17.34-3.25-26.426-3.6758-0.058594-0.003907-0.11719 0.003906-0.17578 0-12.074-0.62891-21.035-0.58203-28.176 1.0508-7.1836 1.6406-12.828 5.3125-16.273 11.023-4.9297 8.1719-6.5508 19.801-8.75 36.75-0.042969 0.32031-0.13281 0.55469-0.17578 0.875h0.007813c-0.003907 0.11719-0.003907 0.23438 0 0.34766-0.83203 6.4141-1.7578 13.402-2.9766 21.523v0.003906c-0.29688 1.9414 0.79297 3.832 2.625 4.5508 11.461 4.8125 18.898 14.547 18.898 25.551 0 15.426-15.082 28.523-34.477 28.523s-34.477-13.098-34.477-28.523c0-11.246 7.9648-21.234 19.949-25.898l0.007812-0.003906c1.832-0.71484 2.9219-2.6055 2.625-4.5508-0.92188-7.4648-1.4727-13.852-1.9258-19.773 0.058593-0.40625 0.058593-0.82031 0-1.2266-0.58984-7.457-1.043-13.602-1.5742-19.074-0.015625-0.17188 0.015625-0.35156 0-0.52734-0.10938-1.1211-0.22266-2.0938-0.35156-3.1484-0.16406-1.3438-0.31641-2.6172-0.52344-3.8516-0.03125-0.19141-0.14062-0.33594-0.17578-0.52734-0.089844-0.5-0.078125-1.0938-0.17578-1.5742-0.20313-1-0.4375-1.8555-0.69922-2.8008-0.11719-0.42188-0.22266-0.82031-0.35156-1.2266-0.11328-0.37109-0.22656-0.69141-0.35156-1.0508-0.19531-0.54297-0.48047-1.0508-0.69922-1.5742-0.64453-1.5547-1.3516-3.0391-2.2734-4.375-0.62891-0.91797-1.3281-1.8203-2.1016-2.625-0.64844-0.66797-1.3711-1.1758-2.1016-1.75-0.55859-0.4375-1.1289-1.0156-1.75-1.3984-0.15234-0.09375-0.37109-0.085938-0.52344-0.17188-0.49609-0.29297-1.0469-0.60937-1.5742-0.875-0.35156-0.17969-0.68359-0.35937-1.0508-0.52734-0.91406-0.40234-1.7852-0.71484-2.8008-1.0508-2.043-0.70703-4.3438-1.2852-6.8242-1.75-2.2656-0.42578-4.8281-0.78125-7.5234-1.0508h-1.2227c-2.3438-0.21094-5.1758-0.39062-7.875-0.52734-1.125-0.054687-2.4805-0.12891-3.6758-0.17187-3.5664-0.13281-7.7266-0.26953-11.898-0.34766-6.4414-0.10547-14.27-0.22266-22.398-0.34766 3.0195-98.762 51.598-192.63 135.62-261.45zm8.5742 71.055c-17.082 0-31.5 10.234-31.5 23.449 0 13.219 14.418 23.102 31.5 23.102 17.082 0 31.852-9.8828 31.852-23.102s-14.766-23.449-31.852-23.449zm0 7.6992c12.934 0 22.75 7.5 22.75 15.75s-9.8164 15.398-22.75 15.398c-12.934 0-22.398-7.1523-22.398-15.398 0-8.25 9.4648-15.75 22.398-15.75zm108.85 58.273c-5.8242 1.3789-12.945 4.125-23.273 10.148-0.97656 0.55469-1.6953 1.4766-1.9922 2.5625-0.29688 1.0859-0.15234 2.2422 0.40625 3.2188 0.55859 0.97656 1.4805 1.6914 2.5664 1.9844 1.0859 0.29688 2.2461 0.14453 3.2188-0.41406 9.832-5.7344 16.078-8.1094 21-9.2734 2.2734-0.53516 3.6836-2.8047 3.1523-5.0781-0.53516-2.2695-2.8047-3.6797-5.0781-3.1484zm-149.97 2.625c-1.5 0.21094-2.7695 1.2148-3.3242 2.625-2.0508 5.0352-3.6328 11.828-3.6758 22.574-0.015625 1.125 0.41797 2.207 1.207 3.0078 0.78906 0.80469 1.8672 1.2539 2.9922 1.2539s2.2031-0.44922 2.9922-1.2539c0.78906-0.80078 1.2266-1.8828 1.207-3.0078 0.039063-10.023 1.3789-15.512 2.9766-19.426 0.57031-1.375 0.36719-2.9531-0.53516-4.1406-0.89844-1.1875-2.3594-1.8086-3.8398-1.6328zm52.324 1.5742c-2.1797 0.18359-3.8555 2.0117-3.8477 4.1992v32.727c0 2.3203 1.8789 4.1992 4.1992 4.1992h38.676c2.3164 0 4.1992-1.8789 4.1992-4.1992v-32.727c0.042969-2.0156-1.3516-3.7773-3.3242-4.1992-0.29297-0.03125-0.58594-0.03125-0.875 0h-38.676c-0.11719-0.003907-0.23438-0.003907-0.35156 0zm4.5508 8.3984h30.273v24.324h-30.273zm145.95 45.148 0.003906 0.003906c-1.3438 0.035156-2.5898 0.71094-3.3516 1.8203-0.76172 1.1055-0.94922 2.5117-0.5 3.7773 1.6328 5.1562 4.8711 11.43 11.898 20.301 1.4531 1.8359 4.1133 2.1523 5.9531 0.69922 1.8359-1.4492 2.1484-4.1133 0.69922-5.9492-6.6289-8.3633-9.2383-13.512-10.5-17.5-0.49219-1.9023-2.2344-3.2109-4.1992-3.1484zm-45.676 2.8008c-11.941 0-21.699 8.2344-21.699 18.375s9.7578 18.375 21.699 18.375 21.699-8.2344 21.699-18.375-9.7578-18.375-21.699-18.375zm-171.33 2.1016c-11.941 0-21.699 8.2344-21.699 18.375 0 10.141 9.7578 18.551 21.699 18.551s21.699-8.4062 21.699-18.551c0-10.141-9.7578-18.375-21.699-18.375zm171.33 5.6016c7.0156 0 12.602 4.7188 12.602 10.676s-5.5859 10.676-12.602 10.676-12.602-4.7188-12.602-10.676 5.5859-10.676 12.602-10.676zm-78.055 1.75h0.003906c-1.4961 0.22266-2.7578 1.2344-3.3008 2.6445-0.54297 1.4141-0.28516 3.0117 0.67578 4.1797 3.3477 4.4414 8.5547 9.4766 18.375 16.102 0.92969 0.62891 2.0703 0.86328 3.1719 0.64844 1.1016-0.21094 2.0703-0.85156 2.6992-1.7812 0.62891-0.92969 0.85937-2.0703 0.64453-3.1719-0.21484-1.1016-0.85938-2.0703-1.7891-2.6953-9.332-6.293-13.785-10.637-16.449-14.176-0.90625-1.293-2.4609-1.9688-4.0273-1.75zm-93.273 0.34766c7.0156 0 12.602 4.7188 12.602 10.676 0 5.957-5.5859 10.676-12.602 10.676s-12.602-4.7188-12.602-10.676c0-5.957 5.5859-10.676 12.602-10.676zm-88.199 62.473c31.555 0.59766 50.137 1.2617 58.973 4.1992h0.17578c0.97266 0.36328 1.8672 0.80078 2.625 1.2266 0.98047 0.54688 1.7734 1.1016 2.4492 1.75 0.085937 0.085937 0.26562 0.089844 0.35156 0.17188 0.054688 0.054687 0.12109 0.125 0.17578 0.17188 1.3711 1.4805 2.3477 3.5078 3.1484 6.3008 0.83203 2.8984 1.457 6.6094 1.9258 11.375 0.058594 0.60156 0.11719 1.1172 0.17578 1.75 0.12891 1.3984 0.21875 3.3203 0.35156 4.8984 0.20703 2.6562 0.48047 5.1289 0.69922 8.0508h-61.945l-9.1016-39.898zm147.17 1.75c4.3203-0.089843 9.4336 0.054688 15.398 0.34766 9.8945 0.48828 18.227 0.054687 22.75 2.625 2.2617 1.2969 3.918 3.1953 5.25 7.1758 1.2031 3.582 1.7578 9.3359 1.5742 16.801-3.4648 2.0586-6.4883 4.6406-8.9258 7.6992-0.18359 0.23047-0.34766 0.46484-0.52344 0.69922-0.73047 0.88281-1.3086 1.8477-1.9258 2.8008h-61.949c2.0898-14.59 3.7188-24.598 6.8242-29.75 2.3828-3.9492 5.1914-6.0586 10.852-7.3516 2.8281-0.64453 6.3555-0.95703 10.676-1.0508zm106.57 1.2266c2.6719-0.054687 5.7617 0 9.4492 0.17188h0.007812 0.17188c13.301 0.19531 20.492 7.8398 24.676 19.773 1.7656 5.0391 2.7852 10.941 3.1484 16.977h-48.648c-0.37891-0.62109-0.8125-1.1523-1.2266-1.75-1.9453-2.8242-4.2656-5.4219-7-7.5234 2.7891-12.906 4.3984-21.586 6.6484-24.324 1.2383-1.5078 2.6836-2.2188 6.125-2.8008 1.7188-0.29297 3.9766-0.46875 6.6484-0.52734zm94.5 1.3984h0.003906 0.17578l92.227 1.2266 8.5742 34.301h-117.43c0.71484-8.9336 1.8008-18.086 4.1992-24.5 0.046875-0.12891 0.125-0.22266 0.17578-0.34766 0.73438-1.8984 1.5664-3.4922 2.4492-4.8984 0.88672-1.4102 1.8242-2.6367 2.8008-3.5 0.46094-0.4375 0.90625-0.74219 1.3984-1.0508 0.50391-0.30859 1.0273-0.50781 1.5742-0.69922 1.0977-0.375 2.3867-0.62109 3.8516-0.52734z"/>
  <use x="70" y="644" xlink:href="#x"/>
  <use x="90.550781" y="644" xlink:href="#d"/>
  <use x="104.359375" y="644" xlink:href="#a"/>
  <use x="123.347656" y="644" xlink:href="#g"/>
  <use x="142.242188" y="644" xlink:href="#c"/>
  <use x="155.628906" y="644" xlink:href="#a"/>
  <use x="174.617188" y="644" xlink:href="#f"/>
  <use x="204.410156" y="644" xlink:href="#j"/>
  <use x="224.453125" y="644" xlink:href="#e"/>
  <use x="252.453125" y="644" xlink:href="#i"/>
  <use x="274.011719" y="644" xlink:href="#b"/>
  <use x="293.25" y="644" xlink:href="#e"/>
  <use x="311.5" y="644" xlink:href="#g"/>
  <use x="330.394531" y="644" xlink:href="#w"/>
  <use x="339.992188" y="644" xlink:href="#v"/>
  <use x="367.992188" y="644" xlink:href="#f"/>
  <use x="388.035156" y="644" xlink:href="#a"/>
  <use x="407.023438" y="644" xlink:href="#u"/>
  <use x="423.691406" y="644" xlink:href="#t"/>
  <use x="433.289062" y="644" xlink:href="#s"/>
  <use x="453.332031" y="644" xlink:href="#h"/>
  <use x="70" y="672" xlink:href="#r"/>
  <use x="82.183594" y="672" xlink:href="#d"/>
  <use x="95.992188" y="672" xlink:href="#b"/>
  <use x="115.226562" y="672" xlink:href="#q"/>
  <use x="154.152344" y="672" xlink:href="#c"/>
  <use x="167.535156" y="672" xlink:href="#p"/>
  <use x="187.46875" y="672" xlink:href="#a"/>
  <use x="216.207031" y="672" xlink:href="#o"/>
  <use x="239.640625" y="672" xlink:href="#b"/>
  <use x="258.878906" y="672" xlink:href="#n"/>
  <use x="278.8125" y="672" xlink:href="#h"/>
  <use x="308.492188" y="672" xlink:href="#m"/>
  <use x="329.015625" y="672" xlink:href="#d"/>
  <use x="342.820312" y="672" xlink:href="#b"/>
  <use x="362.058594" y="672" xlink:href="#l"/>
  <use x="371.65625" y="672" xlink:href="#a"/>
  <use x="390.648438" y="672" xlink:href="#k"/>
  <use x="407.242188" y="672" xlink:href="#c"/>
 </g>
</svg>
