<?xml version="1.0" encoding="UTF-8"?>
<svg width="700pt" height="700pt" version="1.1" viewBox="0 0 700 700" xmlns="http://www.w3.org/2000/svg">
 <path d="m359.16 404.81 122.65-107.35c9.6953-8.4883 10.676-23.23 2.1914-32.926-0.68359-0.77734-1.4141-1.5117-2.1914-2.1914l-123.4-108c-9.2734-8.1172-23.254-7.625-31.934 1.1211l-0.10938 0.11328c-8.168 8.2305-8.1133 21.527 0.11719 29.691 0.25 0.25 0.50391 0.48828 0.76562 0.72266l78.648 70.578h-312.57c-12.887 0-23.332 10.449-23.332 23.336 0 12.887 10.445 23.332 23.332 23.332h312.57l-77.594 67.25c-9.4375 8.1797-10.457 22.461-2.2812 31.898 0.11328 0.12891 0.23047 0.25781 0.34375 0.38672l0.14844 0.16016c8.5508 9.4219 23.07 10.258 32.645 1.8789zm-79.164-288.14c12.887 0 23.332-10.449 23.332-23.336v-46.664h256.67c12.887 0 23.332 10.445 23.332 23.332v420c0 12.887-10.445 23.332-23.332 23.332h-256.67v-46.664c0-12.887-10.445-23.336-23.332-23.336s-23.332 10.449-23.332 23.336v46.664c0 23.336 23.332 46.668 46.949 46.668h279.71c23.336 0 46.668-23.332 46.668-46.668v-466.66c0-23.336-23.332-46.668-46.668-46.668h-280c-23.379 0-46.664 23.332-46.664 46.668v46.664c0 12.887 10.445 23.336 23.332 23.336z" fill-rule="evenodd"/>
</svg>
