<svg width="640" height="506" viewBox="0 0 640 506" fill="none" xmlns="http://www.w3.org/2000/svg">
<path d="M241.41 61.086C241.113 61.1133 240.816 61.1719 240.535 61.2618C239.891 61.4102 239.289 61.711 238.785 62.1368C154.347 130.121 94.7451 239.997 91.0851 366.997H91.0812C90.7804 368.219 91.0421 369.516 91.7999 370.524C92.5538 371.532 93.7218 372.149 94.9835 372.204C96.2413 372.255 97.4601 371.739 98.296 370.798C99.1358 369.856 99.5069 368.587 99.3077 367.344C102.898 242.634 161.535 135.004 244.038 68.5245C245.639 67.4737 246.327 65.4698 245.71 63.6573C245.092 61.8409 243.323 60.6768 241.413 60.8253L241.41 61.086ZM284.109 86.984C283.527 87.1598 282.988 87.4567 282.535 87.859C194.094 158.996 142.745 257.479 140.605 361.209L140.601 361.213C140.593 361.385 140.593 361.561 140.601 361.736C140.558 362.088 140.558 362.439 140.601 362.787V362.963C140.64 363.197 140.699 363.432 140.777 363.662L151.629 411.787C152.117 413.689 153.863 414.998 155.828 414.936H221.976C222.406 419.682 222.742 424.271 223.374 429.811C210.3 436.01 200.8 447.831 200.8 462.01C200.8 482.803 220.413 498.936 243.675 498.936C266.937 498.936 286.55 482.807 286.55 462.01C286.55 448.35 277.734 436.705 265.374 430.334C266.214 424.642 266.98 419.74 267.648 414.936H327.32C326.96 416.588 326.621 418.236 326.621 420.01C326.621 437.123 342.695 450.459 361.621 450.459C380.547 450.459 396.797 437.123 396.797 420.01C396.797 418.217 396.652 416.6 396.273 414.936H441.421C441.249 419.975 440.589 424.952 439.671 429.811C426.433 435.924 416.569 447.706 416.569 462.01C416.569 482.807 436.182 498.936 459.444 498.936C482.706 498.936 502.495 482.807 502.495 462.01C502.495 448.283 493.581 436.819 481.143 430.51C481.151 425.748 481.163 420.393 481.319 414.936H604.699C606.023 414.979 607.289 414.396 608.113 413.361C608.941 412.33 609.23 410.967 608.902 409.686L598.05 368.038C598.054 367.92 598.054 367.803 598.05 367.69C598.011 367.452 597.952 367.217 597.874 366.991C597.823 366.87 597.765 366.756 597.698 366.643C597.702 366.584 597.702 366.526 597.698 366.467C597.644 366.409 597.585 366.35 597.527 366.295C597.363 365.85 597.124 365.436 596.823 365.069C596.769 365.01 596.71 364.952 596.652 364.897V364.721L288.302 88.3911L287.95 88.0395V88.0434C286.927 87.0669 285.477 86.6723 284.102 86.9926L284.109 86.984ZM284.984 96.7848L582.654 363.485L498.654 362.434H498.478C497.256 362.368 496.127 362.614 494.978 362.782C492.689 363.121 490.592 363.918 488.677 365.055C487.873 365.532 487.127 366.039 486.404 366.629C486.24 366.762 486.041 366.836 485.881 366.977C485.037 367.727 484.33 368.547 483.607 369.426C483.291 369.805 482.849 370.071 482.556 370.477C482.22 370.942 481.994 371.559 481.681 372.051C481.435 372.438 481.213 372.871 480.982 373.278C480.654 373.86 480.232 374.414 479.931 375.028C479.338 376.215 478.849 377.43 478.357 378.704C478.314 378.821 478.224 378.938 478.181 379.051C477.482 380.961 476.959 382.93 476.431 385C476.138 386.09 475.81 387.196 475.556 388.325C475.482 388.676 475.451 389.024 475.381 389.375C475.349 389.539 475.412 389.735 475.381 389.903C474.021 396.52 473.131 403.528 472.756 410.551V410.555C472.732 411.027 472.795 411.5 472.931 411.953C472.592 419.5 472.58 426.726 472.58 432.777C472.568 434.433 473.525 435.937 475.029 436.629C486.529 441.461 494.103 451.004 494.103 462.004C494.103 477.434 478.845 490.527 459.455 490.527C440.06 490.527 424.978 477.433 424.978 462.004C424.978 450.762 433.084 440.957 445.103 436.277H445.107C446.466 435.753 447.462 434.562 447.732 433.128C449.181 426.187 449.873 418.858 449.834 411.605L449.83 411.601C449.955 411.027 449.955 410.429 449.83 409.851C449.638 401.793 448.474 393.871 445.978 386.749C441.08 372.769 430.248 361.698 413.603 361.374H413.427C405.97 361.038 400.353 360.945 395.751 361.722C391.107 362.507 387.181 364.468 384.552 367.671C379.345 374.015 378.865 382.909 375.626 397.773C375.595 397.926 375.486 397.968 375.451 398.121H375.455C375.443 398.297 375.443 398.472 375.455 398.648C375.396 399.054 375.396 399.468 375.455 399.875C375.576 400.441 375.814 400.976 376.154 401.449C376.251 401.691 376.369 401.926 376.505 402.148H376.681C376.736 402.207 376.794 402.265 376.857 402.324H377.029C377.084 402.441 377.142 402.558 377.205 402.668C377.263 402.672 377.322 402.672 377.38 402.668C378.216 403.183 379.072 403.84 379.83 404.418C380.587 404.996 381.255 405.531 381.931 406.168C382.287 406.504 382.654 406.867 382.982 407.219C383.283 407.539 383.58 407.941 383.857 408.269C384.439 408.957 384.951 409.637 385.431 410.371C385.88 411.062 386.302 411.742 386.658 412.473L386.654 412.469C386.74 412.773 386.857 413.066 387.005 413.344C387.908 415.465 388.404 417.637 388.404 419.992C388.404 431.722 376.67 442.043 361.631 442.043C346.588 442.043 335.029 431.723 335.029 419.992C335.029 417.582 335.513 415.348 336.427 413.168H336.431C336.568 412.949 336.685 412.715 336.779 412.469C336.814 412.394 336.919 412.367 336.955 412.297C337.455 411.262 338.017 410.277 338.705 409.32C339.462 408.277 340.357 407.269 341.33 406.344C342.302 405.418 343.306 404.519 344.478 403.719C345.65 402.922 346.97 402.105 348.33 401.445C348.865 401.199 349.341 400.84 349.732 400.394C349.79 400.34 349.849 400.281 349.904 400.222C349.908 400.164 349.908 400.105 349.904 400.051C350.025 399.996 350.142 399.937 350.255 399.875V399.703C350.314 399.644 350.373 399.586 350.431 399.527V399.355C350.49 399.297 350.548 399.242 350.607 399.179V399.008C350.685 398.781 350.744 398.547 350.779 398.308C350.783 398.25 350.783 398.191 350.779 398.133C350.861 397.672 350.861 397.195 350.779 396.734C350.787 396.617 350.787 396.504 350.779 396.387C351.091 387.683 350.423 380.942 348.677 375.739C346.833 370.242 343.572 366.305 339.576 364.012C331.638 359.457 322.236 360.762 313.15 360.336C313.091 360.332 313.032 360.34 312.974 360.336C300.9 359.707 291.939 359.754 284.798 361.387C277.614 363.027 271.97 366.699 268.525 372.41C263.595 380.581 261.974 392.211 259.775 409.16C259.732 409.48 259.642 409.714 259.599 410.035H259.607C259.603 410.152 259.603 410.269 259.607 410.382C258.775 416.796 257.849 423.784 256.63 431.905V431.909C256.333 433.85 257.423 435.741 259.255 436.46C270.716 441.272 278.153 451.007 278.153 462.011C278.153 477.437 263.071 490.534 243.676 490.534C224.281 490.534 209.199 477.436 209.199 462.011C209.199 450.765 217.164 440.777 229.148 436.113L229.156 436.109C230.988 435.394 232.078 433.503 231.781 431.558C230.859 424.093 230.308 417.706 229.855 411.785C229.914 411.379 229.914 410.965 229.855 410.559C229.265 403.102 228.812 396.957 228.281 391.485C228.265 391.313 228.297 391.133 228.281 390.957C228.172 389.836 228.058 388.863 227.929 387.809C227.765 386.465 227.613 385.192 227.406 383.957C227.375 383.766 227.265 383.621 227.23 383.43C227.14 382.93 227.152 382.336 227.054 381.856C226.851 380.856 226.617 380 226.355 379.055C226.238 378.633 226.133 378.235 226.004 377.828C225.89 377.457 225.777 377.137 225.652 376.777C225.457 376.235 225.172 375.727 224.953 375.203C224.308 373.649 223.601 372.164 222.68 370.828C222.051 369.91 221.351 369.008 220.578 368.203C219.929 367.535 219.207 367.028 218.476 366.453C217.918 366.016 217.347 365.438 216.726 365.055C216.574 364.961 216.355 364.969 216.203 364.883C215.707 364.59 215.156 364.274 214.629 364.008C214.277 363.828 213.945 363.649 213.578 363.481C212.664 363.078 211.793 362.766 210.777 362.43C208.734 361.723 206.433 361.145 203.953 360.68C201.687 360.254 199.125 359.899 196.429 359.629H195.207C192.863 359.418 190.031 359.238 187.332 359.102C186.207 359.047 184.851 358.973 183.656 358.93C180.09 358.797 175.929 358.66 171.758 358.582C165.317 358.477 157.488 358.36 149.36 358.235C152.38 259.473 200.958 165.605 284.98 96.7846L284.984 96.7848ZM293.558 167.84C276.476 167.84 262.058 178.074 262.058 191.289C262.058 204.508 276.476 214.391 293.558 214.391C310.64 214.391 325.41 204.508 325.41 191.289C325.41 178.07 310.644 167.84 293.558 167.84ZM293.558 175.539C306.492 175.539 316.308 183.039 316.308 191.289C316.308 199.539 306.492 206.687 293.558 206.687C280.624 206.687 271.16 199.535 271.16 191.289C271.16 183.039 280.625 175.539 293.558 175.539ZM402.408 233.812C396.584 235.191 389.463 237.937 379.135 243.96C378.159 244.515 377.44 245.437 377.143 246.523C376.846 247.608 376.991 248.765 377.549 249.741C378.108 250.718 379.03 251.433 380.116 251.726C381.202 252.023 382.362 251.87 383.335 251.312C393.167 245.577 399.413 243.202 404.335 242.038C406.608 241.503 408.018 239.234 407.487 236.96C406.952 234.691 404.682 233.28 402.409 233.812L402.408 233.812ZM252.438 236.437C250.938 236.648 249.669 237.652 249.114 239.062C247.063 244.097 245.481 250.89 245.438 261.636C245.423 262.761 245.856 263.843 246.645 264.644C247.434 265.448 248.512 265.898 249.637 265.898C250.762 265.898 251.841 265.448 252.63 264.644C253.419 263.843 253.856 262.761 253.837 261.636C253.876 251.613 255.216 246.124 256.813 242.21C257.384 240.835 257.18 239.257 256.278 238.069C255.38 236.882 253.919 236.261 252.438 236.437L252.438 236.437ZM304.762 238.011C302.583 238.195 300.907 240.023 300.915 242.21V274.937C300.915 277.258 302.793 279.137 305.114 279.137H343.79C346.106 279.137 347.989 277.258 347.989 274.937V242.21C348.032 240.195 346.637 238.433 344.665 238.011C344.372 237.98 344.079 237.98 343.79 238.011H305.114C304.997 238.007 304.879 238.007 304.762 238.011H304.762ZM309.313 246.41H339.586V270.734H309.313V246.41ZM455.263 291.558L455.267 291.561C453.923 291.597 452.677 292.272 451.915 293.382C451.154 294.487 450.966 295.894 451.415 297.159C453.048 302.315 456.286 308.589 463.313 317.46C464.766 319.296 467.427 319.612 469.266 318.159C471.102 316.71 471.415 314.046 469.966 312.21C463.337 303.847 460.727 298.698 459.466 294.71C458.974 292.808 457.231 291.499 455.266 291.562L455.263 291.558ZM409.587 294.358C397.646 294.358 387.888 302.593 387.888 312.733C387.888 322.874 397.646 331.108 409.587 331.108C421.528 331.108 431.286 322.874 431.286 312.733C431.286 302.593 421.528 294.358 409.587 294.358ZM238.257 296.46C226.316 296.46 216.558 304.694 216.558 314.835C216.558 324.976 226.316 333.386 238.257 333.386C250.198 333.386 259.956 324.98 259.956 314.835C259.956 304.694 250.198 296.46 238.257 296.46V296.46ZM409.587 302.062C416.603 302.062 422.189 306.78 422.189 312.738C422.189 318.695 416.603 323.414 409.587 323.414C402.571 323.414 396.985 318.695 396.985 312.738C396.985 306.78 402.571 302.062 409.587 302.062ZM331.532 303.812H331.536C330.04 304.034 328.778 305.046 328.235 306.456C327.692 307.87 327.95 309.468 328.911 310.636C332.259 315.077 337.466 320.112 347.286 326.738C348.216 327.367 349.356 327.601 350.458 327.386C351.559 327.175 352.528 326.535 353.157 325.605C353.786 324.675 354.016 323.535 353.802 322.433C353.587 321.332 352.942 320.363 352.012 319.738C342.68 313.445 338.227 309.101 335.563 305.562C334.657 304.269 333.103 303.593 331.536 303.812L331.532 303.812ZM238.259 304.159C245.275 304.159 250.861 308.878 250.861 314.835C250.861 320.792 245.275 325.511 238.259 325.511C231.243 325.511 225.657 320.792 225.657 314.835C225.657 308.878 231.243 304.159 238.259 304.159ZM150.06 366.632C181.615 367.23 200.197 367.894 209.033 370.831H209.209C210.182 371.195 211.076 371.632 211.834 372.058C212.814 372.605 213.607 373.16 214.283 373.808C214.369 373.894 214.549 373.898 214.635 373.98C214.689 374.035 214.756 374.105 214.81 374.152C216.181 375.632 217.158 377.66 217.959 380.453C218.791 383.351 219.416 387.062 219.885 391.828C219.943 392.429 220.002 392.945 220.06 393.578C220.189 394.976 220.279 396.898 220.412 398.476C220.619 401.132 220.892 403.605 221.111 406.527H159.166L150.065 366.629L150.06 366.632ZM297.23 368.382C301.55 368.292 306.664 368.437 312.628 368.73C322.523 369.218 330.855 368.785 335.378 371.355C337.64 372.652 339.296 374.55 340.628 378.531C341.831 382.113 342.386 387.867 342.202 395.332C338.737 397.39 335.714 399.972 333.276 403.031C333.093 403.261 332.929 403.496 332.753 403.73C332.023 404.613 331.444 405.578 330.827 406.531H268.878C270.968 391.941 272.597 381.933 275.702 376.781C278.085 372.832 280.894 370.722 286.554 369.429C289.383 368.785 292.91 368.472 297.23 368.379L297.23 368.382ZM403.8 369.609C406.472 369.554 409.562 369.609 413.249 369.781H413.257H413.429C426.73 369.976 433.921 377.621 438.105 389.554C439.871 394.593 440.89 400.495 441.253 406.531H392.605C392.226 405.91 391.793 405.378 391.379 404.781C389.433 401.957 387.113 399.359 384.379 397.257C387.168 384.351 388.777 375.671 391.027 372.933C392.265 371.426 393.711 370.715 397.152 370.133C398.871 369.84 401.129 369.664 403.801 369.605L403.8 369.609ZM498.3 371.007H498.304H498.48L590.707 372.234L599.281 406.535H481.851C482.566 397.601 483.652 388.449 486.05 382.035C486.097 381.906 486.175 381.812 486.226 381.687C486.96 379.789 487.792 378.195 488.675 376.789C489.562 375.379 490.499 374.152 491.476 373.289C491.937 372.851 492.382 372.547 492.874 372.238C493.378 371.929 493.902 371.73 494.449 371.539C495.546 371.164 496.835 370.918 498.3 371.011L498.3 371.007Z" fill="black" fill-opacity="0.08"/>
</svg>
